<?xml version="1.0" encoding="UTF-8"?>
<!--Generator: Apple Native CoreSVG 149-->
<!DOCTYPE svg
PUBLIC "-//W3C//DTD SVG 1.1//EN"
       "http://www.w3.org/Graphics/SVG/1.1/DTD/svg11.dtd">
<svg version="1.1" xmlns="http://www.w3.org/2000/svg" xmlns:xlink="http://www.w3.org/1999/xlink" width="3300" height="2200">
 <!--glyph: "uni100222.medium", point size: 100.000000, font version: "Version 16.0d18e1", template writer version: "8"-->
 <g id="Notes">
  <rect height="2200" id="artboard" style="fill:white;opacity:1" width="3300" x="0" y="0"/>
  <line id="" style="fill:none;stroke:black;opacity:1;stroke-width:0.5;" x1="263" x2="3036" y1="292" y2="292"/>
  <text style="stroke:none;fill:black;font-family:-apple-system,&quot;SF Pro Display&quot;,&quot;SF Pro Text&quot;,Helvetica,sans-serif;font-weight:bold;" transform="matrix(1 0 0 1 263 322)">Weight/Scale Variations</text>
  <text style="stroke:none;fill:black;font-family:-apple-system,&quot;SF Pro Display&quot;,&quot;SF Pro Text&quot;,Helvetica,sans-serif;text-anchor:middle;" transform="matrix(1 0 0 1 559.711 322)">Ultralight</text>
  <text style="stroke:none;fill:black;font-family:-apple-system,&quot;SF Pro Display&quot;,&quot;SF Pro Text&quot;,Helvetica,sans-serif;text-anchor:middle;" transform="matrix(1 0 0 1 856.422 322)">Thin</text>
  <text style="stroke:none;fill:black;font-family:-apple-system,&quot;SF Pro Display&quot;,&quot;SF Pro Text&quot;,Helvetica,sans-serif;text-anchor:middle;" transform="matrix(1 0 0 1 1153.13 322)">Light</text>
  <text style="stroke:none;fill:black;font-family:-apple-system,&quot;SF Pro Display&quot;,&quot;SF Pro Text&quot;,Helvetica,sans-serif;text-anchor:middle;" transform="matrix(1 0 0 1 1449.84 322)">Regular</text>
  <text style="stroke:none;fill:black;font-family:-apple-system,&quot;SF Pro Display&quot;,&quot;SF Pro Text&quot;,Helvetica,sans-serif;text-anchor:middle;" transform="matrix(1 0 0 1 1746.56 322)">Medium</text>
  <text style="stroke:none;fill:black;font-family:-apple-system,&quot;SF Pro Display&quot;,&quot;SF Pro Text&quot;,Helvetica,sans-serif;text-anchor:middle;" transform="matrix(1 0 0 1 2043.27 322)">Semibold</text>
  <text style="stroke:none;fill:black;font-family:-apple-system,&quot;SF Pro Display&quot;,&quot;SF Pro Text&quot;,Helvetica,sans-serif;text-anchor:middle;" transform="matrix(1 0 0 1 2339.98 322)">Bold</text>
  <text style="stroke:none;fill:black;font-family:-apple-system,&quot;SF Pro Display&quot;,&quot;SF Pro Text&quot;,Helvetica,sans-serif;text-anchor:middle;" transform="matrix(1 0 0 1 2636.69 322)">Heavy</text>
  <text style="stroke:none;fill:black;font-family:-apple-system,&quot;SF Pro Display&quot;,&quot;SF Pro Text&quot;,Helvetica,sans-serif;text-anchor:middle;" transform="matrix(1 0 0 1 2933.4 322)">Black</text>
  <line id="" style="fill:none;stroke:black;opacity:1;stroke-width:0.5;" x1="263" x2="3036" y1="1903" y2="1903"/>
  <g id="" transform="matrix(1 0 0 1 263 1933)">
   <path d="M9.24805 0.830078C13.5547 0.830078 17.1387-2.74414 17.1387-7.05078C17.1387-11.3574 13.5449-14.9316 9.23828-14.9316C4.94141-14.9316 1.36719-11.3574 1.36719-7.05078C1.36719-2.74414 4.95117 0.830078 9.24805 0.830078ZM9.24805-0.654297C5.70312-0.654297 2.87109-3.49609 2.87109-7.05078C2.87109-10.6055 5.69336-13.4473 9.23828-13.4473C12.793-13.4473 15.6348-10.6055 15.6445-7.05078C15.6543-3.49609 12.8027-0.654297 9.24805-0.654297ZM6.39648-6.31836L8.50586-6.31836L8.50586-4.19922C8.50586-3.75977 8.79883-3.45703 9.22852-3.45703C9.67773-3.45703 9.9707-3.75977 9.9707-4.19922L9.9707-6.31836L12.0996-6.31836C12.5391-6.31836 12.8418-6.61133 12.8418-7.04102C12.8418-7.48047 12.5391-7.7832 12.0996-7.7832L9.9707-7.7832L9.9707-9.89258C9.9707-10.3418 9.67773-10.6445 9.22852-10.6445C8.79883-10.6445 8.50586-10.3418 8.50586-9.89258L8.50586-7.7832L6.39648-7.7832C5.94727-7.7832 5.64453-7.48047 5.64453-7.04102C5.64453-6.61133 5.94727-6.31836 6.39648-6.31836Z"/>
  </g>
  <g id="" transform="matrix(1 0 0 1 281.506 1933)">
   <path d="M11.709 2.91016C17.1582 2.91016 21.6699-1.61133 21.6699-7.05078C21.6699-12.5 17.1484-17.0117 11.6992-17.0117C6.25977-17.0117 1.74805-12.5 1.74805-7.05078C1.74805-1.61133 6.26953 2.91016 11.709 2.91016ZM11.709 1.25C7.09961 1.25 3.41797-2.44141 3.41797-7.05078C3.41797-11.6602 7.08984-15.3516 11.6992-15.3516C16.3086-15.3516 20-11.6602 20.0098-7.05078C20.0195-2.44141 16.3184 1.25 11.709 1.25ZM7.98828-6.23047L10.8789-6.23047L10.8789-3.32031C10.8789-2.83203 11.2109-2.5 11.6895-2.5C12.1777-2.5 12.5195-2.83203 12.5195-3.32031L12.5195-6.23047L15.4297-6.23047C15.918-6.23047 16.25-6.5625 16.25-7.04102C16.25-7.5293 15.918-7.87109 15.4297-7.87109L12.5195-7.87109L12.5195-10.7617C12.5195-11.2695 12.1777-11.6016 11.6895-11.6016C11.2109-11.6016 10.8789-11.2598 10.8789-10.7617L10.8789-7.87109L7.98828-7.87109C7.48047-7.87109 7.14844-7.5293 7.14844-7.04102C7.14844-6.5625 7.49023-6.23047 7.98828-6.23047Z"/>
  </g>
  <g id="" transform="matrix(1 0 0 1 304.924 1933)">
   <path d="M14.9707 5.66406C21.9336 5.66406 27.6953-0.0976562 27.6953-7.05078C27.6953-14.0137 21.9238-19.7754 14.9609-19.7754C8.00781-19.7754 2.25586-14.0137 2.25586-7.05078C2.25586-0.0976562 8.01758 5.66406 14.9707 5.66406ZM14.9707 3.84766C8.93555 3.84766 4.08203-1.01562 4.08203-7.05078C4.08203-13.0957 8.92578-17.9492 14.9609-17.9492C21.0059-17.9492 25.8594-13.0957 25.8691-7.05078C25.8789-1.01562 21.0156 3.84766 14.9707 3.84766ZM10.0586-6.14258L14.0625-6.14258L14.0625-2.12891C14.0625-1.5918 14.4336-1.2207 14.9512-1.2207C15.4883-1.2207 15.8594-1.5918 15.8594-2.12891L15.8594-6.14258L19.8828-6.14258C20.4102-6.14258 20.791-6.51367 20.791-7.03125C20.791-7.56836 20.4199-7.94922 19.8828-7.94922L15.8594-7.94922L15.8594-11.9531C15.8594-12.5098 15.4883-12.8809 14.9512-12.8809C14.4336-12.8809 14.0625-12.5 14.0625-11.9531L14.0625-7.94922L10.0586-7.94922C9.50195-7.94922 9.13086-7.56836 9.13086-7.03125C9.13086-6.51367 9.51172-6.14258 10.0586-6.14258Z"/>
  </g>
  <text style="stroke:none;fill:black;font-family:-apple-system,&quot;SF Pro Display&quot;,&quot;SF Pro Text&quot;,Helvetica,sans-serif;font-weight:bold;" transform="matrix(1 0 0 1 263 1953)">Design Variations</text>
  <text style="stroke:none;fill:black;font-family:-apple-system,&quot;SF Pro Display&quot;,&quot;SF Pro Text&quot;,Helvetica,sans-serif;" transform="matrix(1 0 0 1 263 1971)">Symbols are supported in up to nine weights and three scales.</text>
  <text style="stroke:none;fill:black;font-family:-apple-system,&quot;SF Pro Display&quot;,&quot;SF Pro Text&quot;,Helvetica,sans-serif;" transform="matrix(1 0 0 1 263 1989)">For optimal layout with text and other symbols, vertically align</text>
  <text style="stroke:none;fill:black;font-family:-apple-system,&quot;SF Pro Display&quot;,&quot;SF Pro Text&quot;,Helvetica,sans-serif;" transform="matrix(1 0 0 1 263 2007)">symbols with the adjacent text.</text>
  <line id="" style="fill:none;stroke:#00AEEF;stroke-width:0.5;opacity:1.0;" x1="776" x2="776" y1="1919" y2="1933"/>
  <g id="" transform="matrix(1 0 0 1 776 1933)">
   <path d="M3.31055 0.126953C3.82812 0.126953 4.08203-0.0683594 4.26758-0.605469L5.52734-4.0625L11.2891-4.0625L12.5488-0.605469C12.7344-0.0683594 12.9883 0.126953 13.4961 0.126953C14.0137 0.126953 14.3457-0.185547 14.3457-0.673828C14.3457-0.839844 14.3164-0.986328 14.2383-1.20117L9.6582-13.3887C9.43359-13.9941 9.0332-14.2871 8.4082-14.2871C7.80273-14.2871 7.39258-13.9941 7.17773-13.3984L2.59766-1.19141C2.51953-0.976562 2.49023-0.830078 2.49023-0.664062C2.49023-0.175781 2.80273 0.126953 3.31055 0.126953ZM6.00586-5.53711L8.37891-12.1094L8.42773-12.1094L10.8008-5.53711Z"/>
  </g>
  <line id="" style="fill:none;stroke:#00AEEF;stroke-width:0.5;opacity:1.0;" x1="792.836" x2="792.836" y1="1919" y2="1933"/>
  <text style="stroke:none;fill:black;font-family:-apple-system,&quot;SF Pro Display&quot;,&quot;SF Pro Text&quot;,Helvetica,sans-serif;font-weight:bold;" transform="matrix(1 0 0 1 776 1953)">Margins</text>
  <text style="stroke:none;fill:black;font-family:-apple-system,&quot;SF Pro Display&quot;,&quot;SF Pro Text&quot;,Helvetica,sans-serif;" transform="matrix(1 0 0 1 776 1971)">Leading and trailing margins on the left and right side of each symbol</text>
  <text style="stroke:none;fill:black;font-family:-apple-system,&quot;SF Pro Display&quot;,&quot;SF Pro Text&quot;,Helvetica,sans-serif;" transform="matrix(1 0 0 1 776 1989)">can be adjusted by modifying the x-location of the margin guidelines.</text>
  <text style="stroke:none;fill:black;font-family:-apple-system,&quot;SF Pro Display&quot;,&quot;SF Pro Text&quot;,Helvetica,sans-serif;" transform="matrix(1 0 0 1 776 2007)">Modifications are automatically applied proportionally to all</text>
  <text style="stroke:none;fill:black;font-family:-apple-system,&quot;SF Pro Display&quot;,&quot;SF Pro Text&quot;,Helvetica,sans-serif;" transform="matrix(1 0 0 1 776 2025)">scales and weights.</text>
  <g id="" transform="matrix(1 0 0 1 1289 1933)">
   <path d="M2.8418 1.86523L4.54102 3.57422C5.40039 4.44336 6.38672 4.38477 7.31445 3.35938L17.4902-7.85156C17.7539-7.76367 18.0273-7.7832 18.3398-7.8418L19.4043-8.03711L20.0684-7.36328L20.0293-6.80664C19.9902-6.30859 20.1172-5.92773 20.6055-5.44922L21.3672-4.70703C21.8457-4.22852 22.4609-4.19922 22.9297-4.66797L25.8398-7.58789C26.3086-8.05664 26.2891-8.65234 25.8105-9.13086L25.0391-9.89258C24.5605-10.3711 24.1895-10.5273 23.7109-10.4883L23.1348-10.4395L22.4902-11.0742L22.7344-12.1973C22.8613-12.7637 22.7051-13.2031 22.1191-13.7891L19.9219-15.9766C16.582-19.2969 12.1484-19.2188 9.25781-16.3281C8.83789-15.918 8.80859-15.3418 9.04297-14.9512C9.27734-14.5898 9.73633-14.3555 10.3809-14.5215C11.8457-14.8633 13.3691-14.9219 14.7949-13.9844L14.209-12.5293C14.0137-12.0508 13.9844-11.6504 14.1113-11.2891L3.04688-0.898438C2.06055 0.0195312 1.98242 0.996094 2.8418 1.86523ZM10.752-15.957C13.1836-17.7344 16.4746-17.4316 18.7012-15.2051L21.1328-12.793C21.3672-12.5586 21.4062-12.373 21.3379-12.0312L21.0156-10.5469L22.5195-9.0625L23.5059-9.12109C23.7598-9.13086 23.8379-9.11133 24.0332-8.91602L24.6094-8.33984L22.168-5.89844L21.5918-6.47461C21.3965-6.66992 21.3672-6.74805 21.377-7.01172L21.4453-7.98828L19.9512-9.47266L18.4277-9.21875C18.1055-9.15039 17.959-9.17969 17.7148-9.41406L15.7129-11.416C15.459-11.6504 15.4297-11.8164 15.5859-12.1875L16.4648-14.2773C14.9023-15.7324 12.8711-16.3574 10.8398-15.7617C10.6836-15.7227 10.625-15.8496 10.752-15.957ZM5.27344 2.30469L4.10156 1.14258C3.63281 0.683594 3.74023 0.341797 4.14062-0.0195312L14.9512-10.1953L16.416-8.71094L6.42578 2.27539C6.07422 2.67578 5.74219 2.77344 5.27344 2.30469Z"/>
  </g>
  <text style="stroke:none;fill:black;font-family:-apple-system,&quot;SF Pro Display&quot;,&quot;SF Pro Text&quot;,Helvetica,sans-serif;font-weight:bold;" transform="matrix(1 0 0 1 1289 1953)">Exporting</text>
  <text style="stroke:none;fill:black;font-family:-apple-system,&quot;SF Pro Display&quot;,&quot;SF Pro Text&quot;,Helvetica,sans-serif;" transform="matrix(1 0 0 1 1289 1971)">Symbols should be outlined when exporting to ensure the</text>
  <text style="stroke:none;fill:black;font-family:-apple-system,&quot;SF Pro Display&quot;,&quot;SF Pro Text&quot;,Helvetica,sans-serif;" transform="matrix(1 0 0 1 1289 1989)">design is preserved when submitting to Xcode.</text>
  <text id="template-version" style="stroke:none;fill:black;font-family:-apple-system,&quot;SF Pro Display&quot;,&quot;SF Pro Text&quot;,Helvetica,sans-serif;text-anchor:end;" transform="matrix(1 0 0 1 3036 1933)">Template v.2.0</text>
  <text style="stroke:none;fill:black;font-family:-apple-system,&quot;SF Pro Display&quot;,&quot;SF Pro Text&quot;,Helvetica,sans-serif;text-anchor:end;" transform="matrix(1 0 0 1 3036 1951)">Requires Xcode 12 or greater</text>
  <text style="stroke:none;fill:black;font-family:-apple-system,&quot;SF Pro Display&quot;,&quot;SF Pro Text&quot;,Helvetica,sans-serif;text-anchor:end;" transform="matrix(1 0 0 1 3036 1969)">Generated from paperplane.circle.fill</text>
  <text style="stroke:none;fill:black;font-family:-apple-system,&quot;SF Pro Display&quot;,&quot;SF Pro Text&quot;,Helvetica,sans-serif;text-anchor:end;" transform="matrix(1 0 0 1 3036 1987)">Typeset at 100 points</text>
  <text style="stroke:none;fill:black;font-family:-apple-system,&quot;SF Pro Display&quot;,&quot;SF Pro Text&quot;,Helvetica,sans-serif;" transform="matrix(1 0 0 1 263 726)">Small</text>
  <text style="stroke:none;fill:black;font-family:-apple-system,&quot;SF Pro Display&quot;,&quot;SF Pro Text&quot;,Helvetica,sans-serif;" transform="matrix(1 0 0 1 263 1156)">Medium</text>
  <text style="stroke:none;fill:black;font-family:-apple-system,&quot;SF Pro Display&quot;,&quot;SF Pro Text&quot;,Helvetica,sans-serif;" transform="matrix(1 0 0 1 263 1586)">Large</text>
 </g>
 <g id="Guides">
  <g id="H-reference" style="fill:#27AAE1;stroke:none;" transform="matrix(1 0 0 1 339 696)">
   <path d="M0.976562 0L3.66211 0L12.9883-24.4629L45.752-24.4629L55.127 0L57.7637 0L30.6152-70.459L28.125-70.459ZM29.3457-67.1387L29.4434-67.1387L44.873-26.709L13.8672-26.709Z"/>
  </g>
  <line id="Baseline-S" style="fill:none;stroke:#27AAE1;opacity:1;stroke-width:0.5;" x1="263" x2="3036" y1="696" y2="696"/>
  <line id="Capline-S" style="fill:none;stroke:#27AAE1;opacity:1;stroke-width:0.5;" x1="263" x2="3036" y1="625.541" y2="625.541"/>
  <g id="H-reference" style="fill:#27AAE1;stroke:none;" transform="matrix(1 0 0 1 339 1126)">
   <path d="M0.976562 0L3.66211 0L12.9883-24.4629L45.752-24.4629L55.127 0L57.7637 0L30.6152-70.459L28.125-70.459ZM29.3457-67.1387L29.4434-67.1387L44.873-26.709L13.8672-26.709Z"/>
  </g>
  <line id="Baseline-M" style="fill:none;stroke:#27AAE1;opacity:1;stroke-width:0.5;" x1="263" x2="3036" y1="1126" y2="1126"/>
  <line id="Capline-M" style="fill:none;stroke:#27AAE1;opacity:1;stroke-width:0.5;" x1="263" x2="3036" y1="1055.54" y2="1055.54"/>
  <g id="H-reference" style="fill:#27AAE1;stroke:none;" transform="matrix(1 0 0 1 339 1556)">
   <path d="M0.976562 0L3.66211 0L12.9883-24.4629L45.752-24.4629L55.127 0L57.7637 0L30.6152-70.459L28.125-70.459ZM29.3457-67.1387L29.4434-67.1387L44.873-26.709L13.8672-26.709Z"/>
  </g>
  <line id="Baseline-L" style="fill:none;stroke:#27AAE1;opacity:1;stroke-width:0.5;" x1="263" x2="3036" y1="1556" y2="1556"/>
  <line id="Capline-L" style="fill:none;stroke:#27AAE1;opacity:1;stroke-width:0.5;" x1="263" x2="3036" y1="1485.54" y2="1485.54"/>
  <line id="left-margin" style="fill:none;stroke:#00AEEF;stroke-width:0.5;opacity:1.0;" x1="1391.3" x2="1391.3" y1="1030.79" y2="1150.12"/>
  <line id="right-margin" style="fill:none;stroke:#00AEEF;stroke-width:0.5;opacity:1.0;" x1="1508.39" x2="1508.39" y1="1030.79" y2="1150.12"/>
 </g>
 <g id="Symbols">
  <g id="Black-L" transform="matrix(1 0 0 1 2854.05 1556)">
   <path d="M79.3457 34.5215C116.748 34.5215 147.412 3.90625 147.412-33.5449C147.412-70.9473 116.748-101.562 79.2969-101.562C41.8945-101.562 11.2793-70.9473 11.2793-33.5449C11.2793 3.90625 41.9434 34.5215 79.3457 34.5215ZM81.5918 7.91016C77.9297 7.91016 76.1719 5.17578 75.0488 1.46484L70.4102-13.2812C69.4824-16.1621 69.7266-18.6035 71.7285-20.7031L107.471-60.3027C107.959-60.8887 107.959-61.5723 107.471-62.1094C107.031-62.4512 106.348-62.5488 105.713-62.1094L66.0645-26.2207C63.5742-24.0723 61.7188-24.1211 58.6426-25.0977L43.7988-29.7363C40.0879-30.8594 37.5-32.5684 37.5-36.2305C37.5-39.502 39.7461-41.6504 42.9688-42.8223L103.027-65.8203C104.395-66.3574 105.664-66.6016 106.885-66.6016C109.961-66.6016 111.963-64.5508 111.963-61.4746C111.963-60.3027 111.768-58.9844 111.23-57.666L88.2812 2.29492C87.0117 5.66406 84.8633 7.91016 81.5918 7.91016Z"/>
  </g>
  <g id="Heavy-L" transform="matrix(1 0 0 1 2558.39 1556)">
   <path d="M78.2715 33.4473C115.088 33.4473 145.312 3.27148 145.312-33.5449C145.312-70.3125 115.039-100.537 78.2715-100.537C41.4551-100.537 11.2793-70.3125 11.2793-33.5449C11.2793 3.27148 41.5039 33.4473 78.2715 33.4473ZM80.3711 8.00781C76.8555 8.00781 75.293 5.37109 74.1699 1.75781L69.1406-14.4043C68.3105-17.0898 68.5547-19.2383 70.3125-21.1426L106.445-60.8398C106.934-61.377 106.934-62.0117 106.494-62.5C106.055-62.8418 105.42-62.9395 104.834-62.4512L65.1367-26.2207C62.9395-24.3164 61.2305-24.3164 58.3496-25.1953L42.0898-30.2246C38.4766-31.3477 35.9863-32.9102 35.9863-36.377C35.9863-39.4531 38.1836-41.5039 41.3086-42.627L102.246-65.9668C103.613-66.5039 104.834-66.748 106.055-66.748C108.887-66.748 110.742-64.9414 110.742-62.0605C110.742-60.8887 110.498-59.6191 109.961-58.252L86.7188 2.53906C85.4492 5.85938 83.3984 8.00781 80.3711 8.00781Z"/>
  </g>
  <g id="Bold-L" transform="matrix(1 0 0 1 2262.88 1556)">
   <path d="M77.0996 32.2754C113.232 32.2754 142.92 2.53906 142.92-33.5449C142.92-69.6777 113.184-99.3652 77.0508-99.3652C40.9668-99.3652 11.2793-69.6777 11.2793-33.5449C11.2793 2.53906 41.0156 32.2754 77.0996 32.2754ZM79.0039 8.1543C75.6348 8.1543 74.2676 5.61523 73.1445 2.05078L67.6758-15.625C66.9434-18.1641 67.1875-19.9707 68.7988-21.6797L105.322-61.4258C105.762-61.9141 105.811-62.5488 105.371-62.9395C104.932-63.2812 104.346-63.3301 103.809-62.8906L64.1602-26.2207C62.207-24.5605 60.6445-24.5117 58.1055-25.293L40.1367-30.8105C36.6211-31.8848 34.2773-33.3008 34.2773-36.5723C34.2773-39.4531 36.4258-41.3574 39.4531-42.4805L101.318-66.1621C102.734-66.6992 103.955-66.9434 105.127-66.9434C107.715-66.9434 109.375-65.2832 109.375-62.6953C109.375-61.5723 109.131-60.3027 108.545-58.8867L84.9609 2.7832C83.7402 6.10352 81.8359 8.1543 79.0039 8.1543Z"/>
  </g>
  <g id="Semibold-L" transform="matrix(1 0 0 1 1966.97 1556)">
   <path d="M76.2695 31.4453C111.914 31.4453 141.309 2.05078 141.309-33.5449C141.309-69.1895 111.865-98.584 76.2695-98.584C40.625-98.584 11.2793-69.1895 11.2793-33.5449C11.2793 2.05078 40.6738 31.4453 76.2695 31.4453ZM78.0273 8.25195C74.8047 8.25195 73.584 5.81055 72.4609 2.24609L66.6992-16.4551C66.0156-18.8965 66.2598-20.459 67.7246-22.0215L104.541-61.8164C104.98-62.3047 105.029-62.8906 104.59-63.2324C104.199-63.5254 103.662-63.623 103.125-63.1836L63.4277-26.2695C61.7188-24.707 60.2539-24.6582 57.9102-25.3906L38.8184-31.2012C35.4004-32.2754 33.1055-33.5449 33.1055-36.7188C33.1055-39.4043 35.2051-41.2598 38.1348-42.334L100.684-66.2598C102.1-66.7969 103.32-67.0898 104.492-67.0898C106.885-67.0898 108.447-65.5762 108.447-63.1348C108.447-62.0117 108.154-60.7422 107.617-59.3262L83.7891 2.97852C82.5195 6.25 80.7129 8.25195 78.0273 8.25195Z"/>
  </g>
  <g id="Medium-L" transform="matrix(1 0 0 1 1670.87 1556)">
   <path d="M75.6836 30.8105C110.938 30.8105 140.088 1.70898 140.088-33.5938C140.088-68.8477 110.889-97.9492 75.6348-97.9492C40.3809-97.9492 11.2793-68.8477 11.2793-33.5938C11.2793 1.70898 40.3809 30.8105 75.6836 30.8105ZM77.2949 8.30078C74.1699 8.30078 73.0469 5.9082 71.9727 2.44141L65.9668-17.1387C65.332-19.4336 65.5273-20.8496 66.9434-22.2656L103.955-62.1094C104.346-62.5977 104.443-63.1348 104.004-63.4766C103.613-63.7695 103.125-63.8184 102.588-63.4277L62.9395-26.2695C61.3281-24.8047 59.9609-24.7559 57.7637-25.4395L37.8418-31.4941C34.4238-32.5684 32.1777-33.7402 32.1777-36.8164C32.1777-39.4043 34.2773-41.1621 37.1582-42.2363L100.195-66.3574C101.611-66.8945 102.832-67.1875 104.004-67.1875C106.299-67.1875 107.715-65.7715 107.715-63.4766C107.715-62.3535 107.422-61.1328 106.885-59.668L82.8613 3.125C81.6406 6.34766 79.8828 8.30078 77.2949 8.30078Z"/>
  </g>
  <g id="Regular-L" transform="matrix(1 0 0 1 1374.97 1556)">
   <path d="M74.8535 30.0293C109.668 30.0293 138.477 1.2207 138.477-33.5938C138.477-68.3594 109.619-97.168 74.8047-97.168C40.0391-97.168 11.2793-68.3594 11.2793-33.5938C11.2793 1.2207 40.0879 30.0293 74.8535 30.0293ZM76.3672 8.39844C73.3398 8.39844 72.3633 6.05469 71.2891 2.63672L64.9902-17.9688C64.4043-20.166 64.5996-21.3379 65.8691-22.6562L103.174-62.5C103.564-62.9395 103.662-63.4766 103.223-63.7695C102.881-64.0625 102.393-64.1113 101.904-63.7207L62.207-26.2695C60.8398-25 59.6191-24.9023 57.5684-25.5371L36.5234-31.8848C33.2031-32.9102 31.0059-33.9844 31.0059-36.9141C31.0059-39.3555 33.0566-41.0645 35.8887-42.0898L99.5605-66.5039C101.025-67.041 102.246-67.334 103.369-67.334C105.469-67.334 106.787-66.0156 106.787-63.916C106.787-62.793 106.445-61.5723 105.908-60.1074L81.6895 3.27148C80.4688 6.49414 78.7598 8.39844 76.3672 8.39844Z"/>
  </g>
  <g id="Light-L" transform="matrix(1 0 0 1 1079.18 1556)">
   <path d="M73.9258 29.1016C108.301 29.1016 136.621 0.78125 136.621-33.5938C136.621-67.9199 108.252-96.2402 73.9258-96.2402C39.5508-96.2402 11.2793-67.9199 11.2793-33.5938C11.2793 0.78125 39.5996 29.1016 73.9258 29.1016ZM75.5859 8.1543C73.0469 8.1543 72.1191 6.20117 71.0938 3.07617L64.1602-19.5312C63.7207-21.2891 63.916-22.4609 64.9902-23.5352L102.734-63.3301C103.076-63.7207 103.223-64.2578 102.832-64.502C102.49-64.6973 102.051-64.7461 101.66-64.4043L61.9629-26.6113C60.8398-25.5371 59.6191-25.3418 57.959-25.8789L35.0586-32.8125C31.9824-33.7891 30.1758-34.7656 30.1758-37.2559C30.1758-39.3555 31.8359-40.8203 34.4727-41.7969L99.7559-66.7969C100.928-67.1875 101.904-67.4805 102.832-67.4805C104.688-67.4805 105.811-66.3574 105.811-64.502C105.811-63.5742 105.566-62.5977 105.127-61.4258L80.2246 3.71094C79.1016 6.54297 77.6855 8.1543 75.5859 8.1543Z"/>
  </g>
  <g id="Thin-L" transform="matrix(1 0 0 1 783.693 1556)">
   <path d="M72.7051 27.8809C106.494 27.8809 134.18 0.195312 134.18-33.5938C134.18-67.334 106.494-95.0195 72.7051-95.0195C38.9648-95.0195 11.2793-67.334 11.2793-33.5938C11.2793 0.195312 38.9648 27.8809 72.7051 27.8809ZM74.5117 7.76367C72.6074 7.76367 71.7773 6.39648 70.8496 3.66211L63.0859-21.6309C62.7441-22.8027 63.0371-23.9258 63.8672-24.7559L102.148-64.4043C102.393-64.7461 102.637-65.2344 102.295-65.4297C101.953-65.5762 101.611-65.5273 101.27-65.2832L61.6211-27.0508C60.8398-26.2207 59.6191-25.9277 58.4961-26.3184L33.1543-33.9844C30.3711-34.9121 29.1016-35.791 29.1016-37.6465C29.1016-39.3555 30.2734-40.4785 32.6172-41.4062L100-67.1875C100.83-67.4316 101.465-67.627 102.148-67.627C103.613-67.627 104.492-66.748 104.492-65.2832C104.492-64.5996 104.346-63.9648 104.053-63.1348L78.2715 4.24805C77.3438 6.5918 76.2207 7.76367 74.5117 7.76367Z"/>
  </g>
  <g id="Ultralight-L" transform="matrix(1 0 0 1 487.616 1556)">
   <path d="M72.1191 27.2461C105.566 27.2461 132.91-0.0976562 132.91-33.5938C132.91-67.041 105.566-94.3848 72.1191-94.3848C38.623-94.3848 11.2793-67.041 11.2793-33.5938C11.2793-0.0976562 38.623 27.2461 72.1191 27.2461ZM73.9746 7.56836C72.3633 7.56836 71.582 6.49414 70.7031 3.95508L62.5488-22.6562C62.2559-23.584 62.5977-24.707 63.2812-25.3418L101.855-64.9902C102.051-65.2832 102.344-65.7715 102.002-65.918C101.709-66.0645 101.416-65.9668 101.074-65.7227L61.4746-27.2461C60.791-26.6113 59.6191-26.2695 58.7891-26.5137L32.1777-34.6191C29.541-35.4492 28.5156-36.3281 28.5156-37.8418C28.5156-39.3555 29.4434-40.332 31.6406-41.2109L100.098-67.3828C100.732-67.5781 101.221-67.7246 101.807-67.7246C103.076-67.7246 103.857-66.9922 103.857-65.7227C103.857-65.1367 103.711-64.6484 103.467-64.0137L77.2949 4.49219C76.4648 6.64062 75.4883 7.56836 73.9746 7.56836Z"/>
  </g>
  <g id="Black-M" transform="matrix(1 0 0 1 2870.97 1126)">
   <path d="M62.4023 19.7754C91.9922 19.7754 116.113-4.29688 116.113-33.8867C116.113-63.4766 91.9922-87.5488 62.4023-87.5488C32.8125-87.5488 8.74023-63.4766 8.74023-33.8867C8.74023-4.29688 32.8125 19.7754 62.4023 19.7754ZM64.502-2.14844C61.7188-2.14844 60.1074-4.10156 59.2773-6.93359L55.8594-17.5781C55.0781-19.8242 55.3223-22.0703 56.9824-23.8281L84.4238-54.4434C84.8145-54.8828 84.8145-55.4199 84.4238-55.8594C84.082-56.2012 83.4961-56.25 83.0078-55.8594L52.2949-28.418C50.1465-26.6113 48.4863-26.6113 45.9961-27.3926L35.498-30.7617C32.6172-31.6406 30.7129-33.1543 30.7129-35.9375C30.7129-38.5742 32.2754-40.2344 34.8145-41.2109L81.0547-58.8867C81.9336-59.2285 82.8125-59.375 83.6426-59.375C86.2305-59.375 87.9395-57.666 87.9395-55.127C87.9395-54.2969 87.793-53.3691 87.4512-52.5391L69.7266-6.20117C68.7988-3.75977 67.1387-2.14844 64.502-2.14844Z"/>
  </g>
  <g id="Heavy-M" transform="matrix(1 0 0 1 2575.19 1126)">
   <path d="M61.5234 18.8477C90.5273 18.8477 114.258-4.88281 114.258-33.8867C114.258-62.9395 90.5273-86.6699 61.4746-86.6699C32.4707-86.6699 8.74023-62.9395 8.74023-33.8867C8.74023-4.88281 32.4707 18.8477 61.5234 18.8477ZM63.3301-1.9043C60.5957-1.9043 59.2285-3.90625 58.3496-6.73828L54.6387-18.3594C53.9551-20.5566 54.1992-22.5098 55.7129-24.1211L83.4473-54.7852C83.7891-55.2246 83.7891-55.7129 83.4473-56.1523C83.1055-56.4453 82.5684-56.4941 82.0801-56.1035L51.3672-28.3203C49.4141-26.709 47.9492-26.709 45.6055-27.4414L33.9844-31.0547C31.1523-31.9336 29.248-33.3008 29.248-36.0352C29.248-38.5254 30.9082-40.1855 33.3496-41.0645L80.127-58.9844C81.1035-59.375 81.9824-59.5215 82.9102-59.5215C85.3027-59.5215 86.8164-57.959 86.8164-55.5664C86.8164-54.7363 86.6699-53.7598 86.2793-52.832L68.4082-6.10352C67.4805-3.56445 65.8203-1.9043 63.3301-1.9043Z"/>
  </g>
  <g id="Bold-M" transform="matrix(1 0 0 1 2279.5 1126)">
   <path d="M60.498 17.8223C88.8672 17.8223 112.207-5.51758 112.207-33.9355C112.207-62.3047 88.8672-85.6445 60.4492-85.6445C32.0312-85.6445 8.74023-62.3047 8.74023-33.9355C8.74023-5.51758 32.0801 17.8223 60.498 17.8223ZM62.0605-1.70898C59.375-1.70898 58.1543-3.71094 57.3242-6.54297L53.3203-19.2383C52.7344-21.3379 52.8809-22.9492 54.248-24.4141L82.3242-55.1758C82.666-55.5664 82.7148-56.0547 82.3242-56.3965C81.9824-56.6895 81.543-56.7383 81.0547-56.3965L50.3418-28.2715C48.6816-26.8066 47.3633-26.8066 45.166-27.4902L32.3242-31.4453C29.541-32.2754 27.5879-33.4961 27.5879-36.1328C27.5879-38.5254 29.2969-40.0879 31.7383-40.9668L79.0527-59.082C80.127-59.5215 81.1035-59.7168 82.0312-59.7168C84.2285-59.7168 85.5957-58.3008 85.5957-56.1035C85.5957-55.2246 85.4004-54.248 85.0098-53.1738L66.9434-5.9082C65.9668-3.32031 64.4043-1.70898 62.0605-1.70898Z"/>
  </g>
  <g id="Semibold-M" transform="matrix(1 0 0 1 1983.5 1126)">
   <path d="M59.7656 17.0898C87.7441 17.0898 110.791-5.95703 110.791-33.9355C110.791-61.9141 87.6953-84.9609 59.7656-84.9609C31.7871-84.9609 8.74023-61.9141 8.74023-33.9355C8.74023-5.95703 31.7871 17.0898 59.7656 17.0898ZM61.1816-1.51367C58.5449-1.51367 57.4707-3.56445 56.5918-6.39648L52.4414-19.873C51.8555-21.9238 52.002-23.2422 53.2715-24.6094L81.543-55.4199C81.8848-55.8105 81.9336-56.2988 81.5918-56.6406C81.25-56.8848 80.8105-56.9336 80.3711-56.5918L49.6094-28.1738C48.1445-26.8555 46.9238-26.8555 44.873-27.4902L31.1523-31.6895C28.3691-32.5195 26.4648-33.5938 26.4648-36.2305C26.4648-38.4766 28.2227-39.9902 30.6152-40.8691L78.3203-59.1309C79.4922-59.6191 80.5176-59.8145 81.4453-59.8145C83.4961-59.8145 84.7656-58.5449 84.7656-56.4941C84.7656-55.5664 84.5703-54.541 84.1309-53.3691L65.918-5.81055C64.9414-3.17383 63.4277-1.51367 61.1816-1.51367Z"/>
  </g>
  <g id="Medium-M" transform="matrix(1 0 0 1 1687.3 1126)">
   <path d="M59.2285 16.5527C86.9141 16.5527 109.766-6.29883 109.766-33.9355C109.766-61.5723 86.8652-84.4238 59.1797-84.4238C31.543-84.4238 8.74023-61.5723 8.74023-33.9355C8.74023-6.29883 31.5918 16.5527 59.2285 16.5527ZM60.498-1.41602C57.9102-1.41602 56.9336-3.4668 56.0547-6.29883L51.7578-20.3613C51.2207-22.3145 51.3184-23.4863 52.5391-24.7559L80.957-55.6152C81.2988-56.0059 81.3477-56.4453 81.0059-56.7871C80.6641-57.0312 80.2734-57.0801 79.834-56.7383L49.0723-28.125C47.7051-26.9043 46.6309-26.9043 44.6777-27.4902L30.2734-31.8848C27.5391-32.7148 25.6348-33.6914 25.6348-36.2793C25.6348-38.4766 27.3926-39.9414 29.7363-40.8203L77.7832-59.2285C79.0039-59.668 80.0293-59.9121 81.0059-59.9121C82.9102-59.9121 84.1309-58.6914 84.1309-56.7871C84.1309-55.8105 83.8867-54.7852 83.4473-53.5645L65.1367-5.71289C64.1602-3.07617 62.6465-1.41602 60.498-1.41602Z"/>
  </g>
  <g id="Regular-M" transform="matrix(1 0 0 1 1391.3 1126)">
   <path d="M58.5449 15.8691C85.791 15.8691 108.35-6.73828 108.35-33.9355C108.35-61.1816 85.7422-83.7402 58.4961-83.7402C31.2988-83.7402 8.74023-61.1816 8.74023-33.9355C8.74023-6.73828 31.3477 15.8691 58.5449 15.8691ZM59.6191-1.26953C57.0312-1.26953 56.25-3.32031 55.3711-6.15234L50.8301-20.9473C50.3418-22.9004 50.4395-23.8281 51.5625-24.9512L80.2246-55.8594C80.5664-56.25 80.5664-56.6895 80.2246-56.9824C79.9316-57.1777 79.541-57.2754 79.1504-56.9336L48.3887-28.0762C47.168-27.002 46.1914-27.002 44.3848-27.5391L29.1504-32.1289C26.416-32.959 24.5117-33.8379 24.5117-36.377C24.5117-38.4277 26.3184-39.8926 28.6621-40.7227L77.0508-59.2773C78.3691-59.7656 79.4434-60.0586 80.4199-60.0586C82.2266-60.0586 83.3008-58.9355 83.3008-57.1289C83.3008-56.1523 83.0566-55.0781 82.5684-53.7598L64.1602-5.61523C63.1348-2.92969 61.6699-1.26953 59.6191-1.26953Z"/>
  </g>
  <g id="Light-M" transform="matrix(1 0 0 1 1095.42 1126)">
   <path d="M57.7148 15.0391C84.5215 15.0391 106.689-7.12891 106.689-33.9355C106.689-60.791 84.5215-82.9102 57.666-82.9102C30.8594-82.9102 8.74023-60.791 8.74023-33.9355C8.74023-7.12891 30.9082 15.0391 57.7148 15.0391ZM58.9355-1.51367C56.7383-1.51367 56.0059-3.17383 55.1758-5.76172L50.0977-22.3633C49.707-23.9258 49.8535-24.8047 50.7812-25.7812L79.834-56.6406C80.0781-56.9824 80.1758-57.373 79.8828-57.6172C79.5898-57.7637 79.248-57.8125 78.9062-57.5195L48.1445-28.3691C47.168-27.4902 46.1914-27.3926 44.7266-27.832L27.832-32.9102C25.3418-33.6914 23.7793-34.5215 23.7793-36.6211C23.7793-38.4277 25.2441-39.6484 27.3438-40.4297L77.2461-59.5703C78.2715-59.9121 79.1504-60.1562 79.9316-60.1562C81.4941-60.1562 82.4219-59.2285 82.4219-57.666C82.4219-56.8359 82.2266-56.0059 81.8359-54.9316L62.8418-5.22461C61.9141-2.88086 60.6934-1.51367 58.9355-1.51367Z"/>
  </g>
  <g id="Thin-M" transform="matrix(1 0 0 1 799.806 1126)">
   <path d="M56.6406 13.916C82.9102 13.916 104.492-7.66602 104.492-33.9355C104.492-60.2539 82.9102-81.8359 56.5918-81.8359C30.3223-81.8359 8.74023-60.2539 8.74023-33.9355C8.74023-7.66602 30.3223 13.916 56.6406 13.916ZM58.0078-1.80664C56.3477-1.80664 55.7129-2.97852 54.9805-5.22461L49.1699-24.2188C48.8281-25.293 49.0723-26.1719 49.7559-26.8555L79.2969-57.6172C79.4922-57.9102 79.6875-58.252 79.3945-58.4473C79.1504-58.5938 78.8574-58.5449 78.5645-58.3008L47.8516-28.7598C47.168-28.125 46.1914-27.9297 45.2148-28.2227L26.123-33.9844C23.877-34.7168 22.8027-35.4492 22.8027-37.0117C22.8027-38.4277 23.8281-39.4043 25.6836-40.0879L77.4414-59.9121C78.1738-60.1562 78.7109-60.3027 79.3457-60.3027C80.5664-60.3027 81.25-59.5703 81.25-58.3496C81.25-57.7637 81.1035-57.1777 80.8594-56.4941L61.084-4.78516C60.3516-2.83203 59.375-1.80664 58.0078-1.80664Z"/>
  </g>
  <g id="Ultralight-M" transform="matrix(1 0 0 1 503.656 1126)">
   <path d="M56.0547 13.3789C82.0801 13.3789 103.369-7.91016 103.369-33.9355C103.369-59.9609 82.0801-81.25 56.0547-81.25C30.0293-81.25 8.74023-59.9609 8.74023-33.9355C8.74023-7.91016 30.0293 13.3789 56.0547 13.3789ZM57.5195-2.00195C56.1523-2.00195 55.5176-2.92969 54.834-4.93164L48.6328-25.1953C48.3887-25.9766 48.6816-26.8555 49.2188-27.3926L79.0039-58.1055C79.1992-58.3496 79.3945-58.7402 79.1504-58.8379C78.9062-58.9844 78.6621-58.9355 78.418-58.7402L47.7051-29.0039C47.1191-28.418 46.1914-28.1738 45.459-28.418L25.2441-34.5703C23.1445-35.2539 22.2656-35.9375 22.2656-37.207C22.2656-38.4277 23.0957-39.2578 24.8047-39.9414L77.5391-60.0586C78.125-60.2539 78.5156-60.4004 79.0039-60.4004C80.0781-60.4004 80.6641-59.7656 80.6641-58.7402C80.6641-58.252 80.5664-57.8125 80.3711-57.2754L60.2051-4.49219C59.5215-2.7832 58.7402-2.00195 57.5195-2.00195Z"/>
  </g>
  <g id="Black-S" transform="matrix(1 0 0 1 2884.57 696)">
   <path d="M48.8281 7.8125C71.9727 7.8125 90.8203-11.0352 90.8203-34.1797C90.8203-57.3242 71.9727-76.1719 48.8281-76.1719C25.6836-76.1719 6.83594-57.3242 6.83594-34.1797C6.83594-11.0352 25.6836 7.8125 48.8281 7.8125ZM50.4395-9.27734C48.2422-9.27734 47.0215-10.8398 46.3379-13.0371L43.6523-21.4355C43.0664-23.1934 43.2617-24.9512 44.5312-26.3184L66.0645-50.293C66.3574-50.6348 66.3574-51.0742 66.0645-51.416C65.7715-51.6602 65.332-51.709 64.9414-51.416L40.8691-29.8828C39.209-28.4668 37.9395-28.4668 35.9863-29.1016L27.6855-31.7383C25.4395-32.4219 23.9258-33.5938 23.9258-35.791C23.9258-37.8418 25.1953-39.1602 27.1484-39.8926L63.4277-53.7598C64.1113-54.0527 64.7949-54.1504 65.4785-54.1504C67.4805-54.1504 68.7988-52.832 68.7988-50.8301C68.7988-50.1953 68.7012-49.4629 68.4082-48.7793L54.541-12.5C53.8086-10.5469 52.4902-9.27734 50.4395-9.27734Z"/>
  </g>
  <g id="Heavy-S" transform="matrix(1 0 0 1 2588.47 696)">
   <path d="M48.2422 7.17773C70.9961 7.17773 89.5996-11.4258 89.5996-34.1797C89.5996-56.9336 70.9961-75.5859 48.1934-75.5859C25.4395-75.5859 6.83594-56.9336 6.83594-34.1797C6.83594-11.4258 25.4395 7.17773 48.2422 7.17773ZM49.6582-9.08203C47.4121-9.08203 46.3379-10.6934 45.6543-12.9395L42.8223-21.875C42.2852-23.6328 42.4316-25.1465 43.6523-26.416L65.332-50.4883C65.625-50.8301 65.625-51.2207 65.332-51.5625C65.0879-51.7578 64.6484-51.8555 64.2578-51.5625L40.1855-29.7852C38.6719-28.4668 37.5488-28.5156 35.6445-29.1016L26.6602-31.8848C24.4629-32.5684 22.9004-33.6426 22.9004-35.8398C22.9004-37.8418 24.2188-39.1113 26.1719-39.8438L62.6953-53.8086C63.4766-54.1504 64.209-54.248 64.9414-54.248C66.8457-54.248 68.0664-53.0273 68.0664-51.123C68.0664-50.4395 67.9199-49.6582 67.627-48.877L53.6621-12.4512C52.9297-10.4004 51.6113-9.08203 49.6582-9.08203Z"/>
  </g>
  <g id="Bold-S" transform="matrix(1 0 0 1 2292.44 696)">
   <path d="M47.5586 6.49414C69.873 6.49414 88.2324-11.8652 88.2324-34.2285C88.2324-56.543 69.873-74.9023 47.5098-74.9023C25.1953-74.9023 6.83594-56.543 6.83594-34.2285C6.83594-11.8652 25.1953 6.49414 47.5586 6.49414ZM48.7305-8.88672C46.5332-8.88672 45.6055-10.5469 44.873-12.8418L41.8945-22.4121C41.4062-24.1211 41.5527-25.3906 42.627-26.5625L64.5508-50.6836C64.8438-51.0254 64.8438-51.416 64.5508-51.6602C64.2578-51.9043 63.916-51.9531 63.5254-51.6602L39.4531-29.6875C38.0859-28.5156 37.0605-28.5156 35.3027-29.0527L25.5371-32.0801C23.3398-32.7637 21.7285-33.6914 21.7285-35.8887C21.7285-37.793 23.1445-39.0625 25.0977-39.7949L61.8652-53.8574C62.7441-54.1992 63.5742-54.3945 64.3555-54.3945C66.1133-54.3945 67.2363-53.2227 67.2363-51.4648C67.2363-50.7324 67.0898-49.9023 66.6992-48.9746L52.6855-12.3535C51.9043-10.2539 50.6348-8.88672 48.7305-8.88672Z"/>
  </g>
  <g id="Semibold-S" transform="matrix(1 0 0 1 1996.2 696)">
   <path d="M47.0703 6.00586C69.0918 6.00586 87.3047-12.1582 87.3047-34.2285C87.3047-56.25 69.0918-74.4629 47.0215-74.4629C25-74.4629 6.83594-56.25 6.83594-34.2285C6.83594-12.1582 25.0488 6.00586 47.0703 6.00586ZM48.1445-8.74023C45.8984-8.74023 45.0684-10.4492 44.3359-12.7441L41.2598-22.7539C40.8203-24.4629 40.918-25.5371 41.9434-26.6602L64.0137-50.7812C64.2578-51.123 64.3066-51.5137 64.0137-51.8066C63.7207-52.002 63.3789-52.0508 63.0371-51.7578L38.916-29.6387C37.6953-28.5156 36.7188-28.5645 35.0098-29.0527L24.8047-32.1777C22.5586-32.8613 20.9473-33.7402 20.9473-35.9375C20.9473-37.793 22.4121-39.0137 24.3652-39.7461L61.2793-53.9062C62.2559-54.248 63.1348-54.4434 63.916-54.4434C65.625-54.4434 66.6504-53.418 66.6504-51.709C66.6504-50.9277 66.5039-50.0488 66.1133-49.0723L52.0508-12.3047C51.2207-10.1562 49.9512-8.74023 48.1445-8.74023Z"/>
  </g>
  <g id="Medium-S" transform="matrix(1 0 0 1 1699.83 696)">
   <path d="M46.7285 5.66406C68.5547 5.66406 86.6211-12.4023 86.6211-34.2285C86.6211-56.0547 68.5059-74.1211 46.6797-74.1211C24.8535-74.1211 6.83594-56.0547 6.83594-34.2285C6.83594-12.4023 24.9023 5.66406 46.7285 5.66406ZM47.6562-8.64258C45.459-8.64258 44.6777-10.4004 43.9453-12.6953L40.8203-22.998C40.332-24.707 40.4297-25.6348 41.4062-26.709L63.5742-50.9277C63.8672-51.2207 63.8672-51.6113 63.5742-51.8555C63.3301-52.0508 62.9883-52.1484 62.6465-51.8555L38.5254-29.541C37.3535-28.5156 36.4746-28.5645 34.8145-29.0527L24.2188-32.2754C21.9727-32.959 20.3613-33.7402 20.3613-35.9375C20.3613-37.7441 21.875-39.0137 23.7793-39.6973L60.8398-53.9062C61.9141-54.2969 62.793-54.541 63.623-54.541C65.2344-54.541 66.2598-53.5156 66.2598-51.9043C66.2598-51.0742 66.0156-50.1953 65.625-49.1211L51.5137-12.2559C50.6836-10.0586 49.4629-8.64258 47.6562-8.64258Z"/>
  </g>
  <g id="Regular-S" transform="matrix(1 0 0 1 1403.58 696)">
   <path d="M46.2402 5.17578C67.7734 5.17578 85.6934-12.6953 85.6934-34.2285C85.6934-55.7617 67.7246-73.6328 46.1914-73.6328C24.707-73.6328 6.83594-55.7617 6.83594-34.2285C6.83594-12.6953 24.7559 5.17578 46.2402 5.17578ZM47.0703-8.49609C44.8242-8.49609 44.1406-10.3027 43.4082-12.6465L40.1855-23.3398C39.7461-25.0488 39.7949-25.7812 40.7715-26.8066L63.0371-51.0254C63.3301-51.3672 63.3301-51.709 63.0371-51.9531C62.793-52.1484 62.4512-52.2461 62.1094-51.9531L37.9883-29.4922C36.9629-28.5645 36.1816-28.5645 34.5703-29.0527L23.4375-32.4219C21.2402-33.0566 19.5801-33.7891 19.5801-35.9863C19.5801-37.7441 21.1426-38.9648 23.0469-39.6484L60.3027-53.9551C61.4258-54.3945 62.3535-54.5898 63.2324-54.5898C64.7461-54.5898 65.6738-53.6621 65.6738-52.1484C65.6738-51.2695 65.4297-50.3418 65.0391-49.2188L50.8789-12.207C50-9.96094 48.7793-8.49609 47.0703-8.49609Z"/>
  </g>
  <g id="Light-S" transform="matrix(1 0 0 1 1107.6 696)">
   <path d="M45.5078 4.44336C66.6992 4.44336 84.2285-13.0371 84.2285-34.2285C84.2285-55.4199 66.6504-72.9004 45.5078-72.9004C24.3164-72.9004 6.83594-55.4199 6.83594-34.2285C6.83594-13.0371 24.3652 4.44336 45.5078 4.44336ZM46.4355-8.69141C44.5801-8.69141 43.9453-10.1562 43.2617-12.3047L39.502-24.6094C39.1602-25.9766 39.2578-26.709 40.0391-27.4902L62.6953-51.709C62.8906-52.002 62.9883-52.2949 62.6953-52.4902C62.5-52.6855 62.207-52.7344 61.9141-52.4902L37.793-29.7363C36.9629-28.9551 36.1816-28.9062 34.9121-29.2969L22.2656-33.1055C20.2637-33.7402 18.8965-34.4238 18.8965-36.2305C18.8965-37.7441 20.166-38.7695 21.9238-39.4043L60.4492-54.1992C61.3281-54.541 62.1094-54.6875 62.793-54.6875C64.1113-54.6875 64.8926-53.9062 64.8926-52.5879C64.8926-51.9043 64.6973-51.123 64.3555-50.2441L49.707-11.8652C48.9746-9.91211 47.9004-8.69141 46.4355-8.69141Z"/>
  </g>
  <g id="Thin-S" transform="matrix(1 0 0 1 811.867 696)">
   <path d="M44.5801 3.51562C65.2832 3.51562 82.2754-13.5254 82.2754-34.2285C82.2754-54.9316 65.2344-71.9727 44.5312-71.9727C23.8281-71.9727 6.83594-54.9316 6.83594-34.2285C6.83594-13.5254 23.877 3.51562 44.5801 3.51562ZM45.6055-8.98438C44.2383-8.98438 43.7012-10.0098 43.1152-11.8164L38.6719-26.2695C38.4277-27.1484 38.5742-27.8809 39.1602-28.4668L62.207-52.5879C62.4023-52.7832 62.5-53.125 62.3047-53.2227C62.0605-53.3691 61.8652-53.3691 61.6211-53.1738L37.5488-30.0781C36.9141-29.541 36.1816-29.3945 35.3027-29.6387L20.8008-34.082C18.9941-34.6191 18.0176-35.2051 18.0176-36.5723C18.0176-37.7441 18.8965-38.5254 20.4102-39.1113L60.5957-54.4922C61.2305-54.6875 61.7676-54.834 62.2559-54.834C63.2812-54.834 63.8672-54.248 63.8672-53.2227C63.8672-52.6855 63.7695-52.1973 63.5254-51.5625L48.1934-11.4746C47.5586-9.86328 46.7773-8.98438 45.6055-8.98438Z"/>
  </g>
  <g id="Ultralight-S" transform="matrix(1 0 0 1 515.644 696)">
   <path d="M44.043 2.97852C64.502 2.97852 81.2988-13.7695 81.2988-34.2285C81.2988-54.6875 64.502-71.4355 44.043-71.4355C23.584-71.4355 6.83594-54.6875 6.83594-34.2285C6.83594-13.7695 23.584 2.97852 44.043 2.97852ZM45.166-9.13086C44.043-9.13086 43.5547-9.91211 42.9688-11.5723L38.2324-27.0996C38.0371-27.7832 38.2324-28.4668 38.6719-28.9551L61.9629-53.0273C62.1094-53.2227 62.2559-53.5156 62.0605-53.6133C61.8652-53.7109 61.6699-53.6621 61.4746-53.5156L37.4023-30.2734C36.9141-29.834 36.1816-29.6387 35.5469-29.834L20.0195-34.5703C18.3105-35.1074 17.5781-35.6445 17.5781-36.7188C17.5781-37.7441 18.2617-38.4277 19.6777-38.9648L60.7422-54.6387C61.1816-54.834 61.5723-54.9316 61.9629-54.9316C62.8418-54.9316 63.3301-54.3945 63.3301-53.5645C63.3301-53.125 63.2324-52.7344 63.0859-52.2949L47.4121-11.2305C46.8262-9.81445 46.1914-9.13086 45.166-9.13086Z"/>
  </g>
 </g>
</svg>
