<?xml version="1.0" encoding="UTF-8" standalone="no"?><!DOCTYPE svg PUBLIC "-//W3C//DTD SVG 1.1//EN" "http://www.w3.org/Graphics/SVG/1.1/DTD/svg11.dtd"><svg width="100%" height="100%" viewBox="0 0 125 125" version="1.1" xmlns="http://www.w3.org/2000/svg" xmlns:xlink="http://www.w3.org/1999/xlink" xml:space="preserve" xmlns:serif="http://www.serif.com/" style="fill-rule:evenodd;clip-rule:evenodd;stroke-miterlimit:10;"><g id="Ebene-1" serif:id="Ebene 1"><path d="M114.583,62.5c0,-28.746 -23.337,-52.083 -52.083,-52.083c-28.746,-0 -52.083,23.337 -52.083,52.083c-0,28.746 23.337,52.083 52.083,52.083c28.746,0 52.083,-23.337 52.083,-52.083Z" style="fill:#15855d;stroke:#15855d;stroke-width:4.17px;"/><path d="M82.985,40.811c3.395,0 6.15,-2.749 6.15,-6.149c0,-3.395 -2.755,-6.15 -6.15,-6.15c-3.4,0 -6.149,2.755 -6.149,6.15c-0,3.4 2.749,6.149 6.149,6.149" style="fill:#fff;fill-rule:nonzero;"/><path d="M42.172,41.146c3.484,0 6.312,-2.821 6.312,-6.312c-0,-3.484 -2.828,-6.312 -6.312,-6.312c-3.491,0 -6.312,2.828 -6.312,6.312c-0,3.491 2.821,6.312 6.312,6.312" style="fill:#fff;fill-rule:nonzero;"/><path d="M28.034,78.102c3.439,0 6.231,-2.785 6.231,-6.231c-0,-3.439 -2.792,-6.23 -6.231,-6.23c-3.445,-0 -6.231,2.791 -6.231,6.23c0,3.446 2.786,6.231 6.231,6.231" style="fill:#fff;fill-rule:nonzero;"/><path d="M62.5,100.042c3.446,-0 6.242,-2.791 6.242,-6.243c0,-3.445 -2.796,-6.242 -6.242,-6.242c-3.452,0 -6.242,2.797 -6.242,6.242c-0,3.452 2.79,6.243 6.242,6.243" style="fill:#fff;fill-rule:nonzero;"/><path d="M62.5,67.838c3.446,-0 6.242,-2.79 6.242,-6.242c0,-3.446 -2.796,-6.243 -6.242,-6.243c-3.452,0 -6.242,2.797 -6.242,6.243c-0,3.452 2.79,6.242 6.242,6.242" style="fill:#fff;fill-rule:nonzero;"/><path d="M96.969,77.871c3.42,0 6.195,-2.769 6.195,-6.195c0,-3.421 -2.775,-6.196 -6.195,-6.196c-3.427,-0 -6.196,2.775 -6.196,6.196c-0,3.426 2.769,6.195 6.196,6.195" style="fill:#fff;fill-rule:nonzero;"/><path d="M88.986,77.331l-17.065,11.95" style="fill:none;fill-rule:nonzero;stroke:#fff;stroke-width:4.17px;stroke-linecap:round;"/><path d="M38.004,43.448l-7.126,19.577" style="fill:none;fill-rule:nonzero;stroke:#fff;stroke-width:4.17px;stroke-linecap:round;"/><path d="M73.119,34.757l-20.833,-0" style="fill:none;fill-rule:nonzero;stroke:#fff;stroke-width:4.17px;stroke-linecap:round;"/><path d="M94.245,62.865l-7.125,-19.577" style="fill:none;fill-rule:nonzero;stroke:#fff;stroke-width:4.17px;stroke-linecap:round;"/><path d="M36.309,77.225l17.066,11.95" style="fill:none;fill-rule:nonzero;stroke:#fff;stroke-width:4.17px;stroke-linecap:round;"/><path d="M62.52,72.307l-0,10.405" style="fill:none;fill-rule:nonzero;stroke:#fff;stroke-width:4.17px;stroke-linecap:round;"/><path d="M49.258,44.488l6.201,8.356" style="fill:none;fill-rule:nonzero;stroke:#fff;stroke-width:4.17px;stroke-linecap:round;"/></g></svg>