<?xml version="1.0" encoding="UTF-8" standalone="no"?><!DOCTYPE svg PUBLIC "-//W3C//DTD SVG 1.1//EN" "http://www.w3.org/Graphics/SVG/1.1/DTD/svg11.dtd"><svg width="100%" height="100%" viewBox="0 0 13750 9167" version="1.1" xmlns="http://www.w3.org/2000/svg" xmlns:xlink="http://www.w3.org/1999/xlink" xml:space="preserve" xmlns:serif="http://www.serif.com/" style="fill-rule:evenodd;clip-rule:evenodd;"><g id="Notes"><rect id="artboard" x="0" y="0" width="13750" height="9166.67" style="fill:#fff;"/><path d="M1095.83,1216.67l11554.2,-0" style="fill:none;fill-rule:nonzero;stroke:#000;stroke-width:2.08px;"/><text x="1095.83px" y="1341.67px" style="font-family:'LucidaGrande-Bold', 'Lucida Grande', sans-serif;font-weight:600;font-size:54.167px;">Weight/Scale Variations</text><text x="2209.88px" y="1341.67px" style="font-family:'LucidaGrande', 'Lucida Grande', sans-serif;font-weight:500;font-size:54.167px;">Ultralight</text><text x="3509.86px" y="1341.67px" style="font-family:'LucidaGrande', 'Lucida Grande', sans-serif;font-weight:500;font-size:54.167px;">Thin</text><text x="4738.61px" y="1341.67px" style="font-family:'LucidaGrande', 'Lucida Grande', sans-serif;font-weight:500;font-size:54.167px;">Light</text><text x="5941.22px" y="1341.67px" style="font-family:'LucidaGrande', 'Lucida Grande', sans-serif;font-weight:500;font-size:54.167px;">Regular</text><text x="7171.95px" y="1341.67px" style="font-family:'LucidaGrande', 'Lucida Grande', sans-serif;font-weight:500;font-size:54.167px;">Medium</text><text x="8392.28px" y="1341.67px" style="font-family:'LucidaGrande', 'Lucida Grande', sans-serif;font-weight:500;font-size:54.167px;">Semibold</text><text x="9692.83px" y="1341.67px" style="font-family:'LucidaGrande', 'Lucida Grande', sans-serif;font-weight:500;font-size:54.167px;">Bold</text><text x="10908.1px" y="1341.67px" style="font-family:'LucidaGrande', 'Lucida Grande', sans-serif;font-weight:500;font-size:54.167px;">Heavy</text><text x="12154.4px" y="1341.67px" style="font-family:'LucidaGrande', 'Lucida Grande', sans-serif;font-weight:500;font-size:54.167px;">Black</text><path d="M1095.83,7929.17l11554.2,-0" style="fill:none;fill-rule:nonzero;stroke:#000;stroke-width:2.08px;"/><g><path d="M1134.37,8057.62c4.503,0 8.735,-0.854 12.695,-2.563c3.961,-1.709 7.453,-4.083 10.478,-7.121c3.024,-3.038 5.398,-6.537 7.121,-10.498c1.722,-3.96 2.584,-8.179 2.584,-12.655c-0,-4.476 -0.862,-8.694 -2.584,-12.654c-1.723,-3.961 -4.103,-7.46 -7.141,-10.498c-3.039,-3.039 -6.538,-5.412 -10.498,-7.121c-3.961,-1.709 -8.193,-2.563 -12.696,-2.563c-4.476,-0 -8.694,0.854 -12.654,2.563c-3.961,1.709 -7.447,4.082 -10.458,7.121c-3.011,3.038 -5.378,6.537 -7.1,10.498c-1.723,3.96 -2.584,8.178 -2.584,12.654c-0,4.476 0.861,8.695 2.584,12.655c1.722,3.961 4.096,7.46 7.121,10.498c3.024,3.038 6.517,5.412 10.477,7.121c3.961,1.709 8.179,2.563 12.655,2.563Zm-0,-6.185c-3.689,0 -7.141,-0.685 -10.356,-2.054c-3.214,-1.37 -6.035,-3.276 -8.463,-5.717c-2.428,-2.442 -4.327,-5.277 -5.697,-8.505c-1.37,-3.228 -2.055,-6.686 -2.055,-10.376c0,-3.689 0.678,-7.147 2.035,-10.376c1.356,-3.228 3.248,-6.062 5.676,-8.504c2.428,-2.441 5.249,-4.347 8.464,-5.717c3.214,-1.37 6.666,-2.055 10.355,-2.055c3.717,0 7.182,0.685 10.396,2.055c3.215,1.37 6.043,3.276 8.484,5.717c2.442,2.442 4.354,5.276 5.738,8.504c1.383,3.229 2.075,6.687 2.075,10.376c-0,3.69 -0.685,7.148 -2.055,10.376c-1.37,3.228 -3.269,6.063 -5.697,8.505c-2.427,2.441 -5.255,4.347 -8.484,5.717c-3.228,1.369 -6.7,2.054 -10.416,2.054Zm-14.974,-26.652c-0,0.896 0.285,1.621 0.854,2.177c0.57,0.556 1.33,0.835 2.279,0.835l8.789,-0l0,8.829c0,0.895 0.271,1.635 0.814,2.218c0.542,0.583 1.275,0.875 2.197,0.875c0.895,-0 1.635,-0.292 2.218,-0.875c0.583,-0.583 0.875,-1.323 0.875,-2.218l-0,-8.829l8.788,-0c0.923,-0 1.669,-0.279 2.239,-0.835c0.569,-0.556 0.854,-1.281 0.854,-2.177c-0,-0.922 -0.285,-1.668 -0.854,-2.238c-0.57,-0.569 -1.316,-0.854 -2.239,-0.854l-8.788,-0l-0,-8.789c-0,-0.922 -0.292,-1.675 -0.875,-2.258c-0.583,-0.584 -1.323,-0.875 -2.218,-0.875c-0.922,-0 -1.655,0.291 -2.197,0.875c-0.543,0.583 -0.814,1.336 -0.814,2.258l0,8.789l-8.789,-0c-0.949,-0 -1.709,0.285 -2.279,0.854c-0.569,0.57 -0.854,1.316 -0.854,2.238Z" style="fill-rule:nonzero;"/></g><g><path d="M1223.23,8066.29c5.67,0 11.007,-1.085 16.012,-3.255c5.005,-2.17 9.42,-5.168 13.245,-8.992c3.824,-3.825 6.822,-8.24 8.992,-13.245c2.17,-5.005 3.255,-10.342 3.255,-16.012c0,-5.669 -1.085,-11.006 -3.255,-16.011c-2.17,-5.005 -5.168,-9.42 -8.992,-13.245c-3.825,-3.825 -8.247,-6.822 -13.265,-8.992c-5.019,-2.17 -10.363,-3.255 -16.032,-3.255c-5.67,-0 -11.007,1.085 -16.012,3.255c-5.005,2.17 -9.413,5.167 -13.224,8.992c-3.812,3.825 -6.802,8.24 -8.972,13.245c-2.171,5.005 -3.256,10.342 -3.256,16.011c0,5.67 1.085,11.007 3.256,16.012c2.17,5.005 5.167,9.42 8.992,13.245c3.825,3.824 8.24,6.822 13.245,8.992c5.005,2.17 10.342,3.255 16.011,3.255Zm0,-6.917c-4.801,0 -9.291,-0.895 -13.468,-2.686c-4.178,-1.79 -7.847,-4.265 -11.007,-7.426c-3.16,-3.16 -5.629,-6.829 -7.405,-11.006c-1.777,-4.178 -2.666,-8.667 -2.666,-13.469c0,-4.801 0.889,-9.29 2.666,-13.468c1.776,-4.177 4.238,-7.853 7.385,-11.027c3.147,-3.174 6.809,-5.649 10.986,-7.426c4.178,-1.777 8.667,-2.665 13.469,-2.665c4.801,-0 9.29,0.888 13.468,2.665c4.177,1.777 7.853,4.252 11.027,7.426c3.174,3.174 5.656,6.85 7.446,11.027c1.791,4.178 2.686,8.667 2.686,13.468c0,4.802 -0.888,9.291 -2.665,13.469c-1.777,4.177 -4.246,7.846 -7.406,11.007c-3.16,3.16 -6.836,5.635 -11.027,7.425c-4.191,1.791 -8.687,2.686 -13.489,2.686Zm-18.88,-34.587c0,0.977 0.326,1.777 0.977,2.401c0.651,0.624 1.492,0.936 2.522,0.936l11.963,0l0,12.004c0,1.03 0.312,1.865 0.936,2.502c0.624,0.638 1.424,0.956 2.401,0.956c1.031,0 1.865,-0.318 2.502,-0.956c0.638,-0.637 0.956,-1.472 0.956,-2.502l0,-12.004l12.004,0c1.031,0 1.865,-0.312 2.503,-0.936c0.637,-0.624 0.956,-1.424 0.956,-2.401c-0,-1.03 -0.319,-1.865 -0.956,-2.502c-0.638,-0.638 -1.472,-0.956 -2.503,-0.956l-12.004,-0l0,-11.963c0,-1.058 -0.318,-1.906 -0.956,-2.543c-0.637,-0.638 -1.471,-0.956 -2.502,-0.956c-0.977,-0 -1.777,0.325 -2.401,0.976c-0.624,0.651 -0.936,1.492 -0.936,2.523l0,11.963l-11.963,-0c-1.058,-0 -1.905,0.318 -2.543,0.956c-0.637,0.637 -0.956,1.472 -0.956,2.502Z" style="fill-rule:nonzero;"/></g><g><path d="M1335.9,8077.77c5.805,-0 11.346,-0.902 16.622,-2.706c5.276,-1.804 10.125,-4.333 14.547,-7.589c4.421,-3.255 8.266,-7.093 11.535,-11.515c3.269,-4.422 5.805,-9.277 7.609,-14.567c1.804,-5.29 2.706,-10.824 2.706,-16.602c0,-5.805 -0.902,-11.345 -2.706,-16.621c-1.804,-5.277 -4.34,-10.126 -7.609,-14.547c-3.269,-4.422 -7.114,-8.267 -11.535,-11.536c-4.422,-3.269 -9.278,-5.805 -14.567,-7.609c-5.29,-1.804 -10.838,-2.706 -16.643,-2.706c-5.805,0 -11.345,0.902 -16.622,2.706c-5.276,1.804 -10.118,4.34 -14.526,7.609c-4.408,3.269 -8.247,7.114 -11.515,11.536c-3.269,4.421 -5.799,9.27 -7.589,14.547c-1.79,5.276 -2.686,10.816 -2.686,16.621c0,5.778 0.902,11.312 2.706,16.602c1.804,5.29 4.334,10.145 7.589,14.567c3.255,4.422 7.094,8.26 11.515,11.515c4.422,3.256 9.271,5.785 14.547,7.589c5.276,1.804 10.817,2.706 16.622,2.706Zm-0,-7.568c-5.018,-0 -9.8,-0.767 -14.343,-2.299c-4.544,-1.533 -8.701,-3.683 -12.472,-6.45c-3.77,-2.767 -7.046,-6.042 -9.826,-9.826c-2.781,-3.785 -4.931,-7.949 -6.45,-12.492c-1.519,-4.544 -2.279,-9.325 -2.279,-14.344c0,-5.045 0.76,-9.84 2.279,-14.383c1.519,-4.544 3.662,-8.708 6.429,-12.492c2.767,-3.785 6.036,-7.06 9.806,-9.827c3.771,-2.767 7.928,-4.91 12.472,-6.429c4.544,-1.519 9.325,-2.279 14.343,-2.279c5.046,0 9.84,0.76 14.384,2.279c4.544,1.519 8.708,3.662 12.492,6.429c3.784,2.767 7.06,6.042 9.827,9.827c2.767,3.784 4.916,7.948 6.449,12.492c1.533,4.543 2.299,9.338 2.299,14.383c0.027,5.019 -0.719,9.8 -2.238,14.344c-1.519,4.543 -3.669,8.707 -6.449,12.492c-2.781,3.784 -6.063,7.059 -9.847,9.826c-3.784,2.767 -7.948,4.917 -12.492,6.45c-4.544,1.532 -9.339,2.299 -14.384,2.299Zm-24.048,-45.411c0,1.058 0.36,1.933 1.078,2.625c0.719,0.692 1.635,1.038 2.747,1.038l16.439,-0l-0,16.479c-0,1.112 0.346,2.028 1.037,2.747c0.692,0.718 1.58,1.078 2.666,1.078c1.112,-0 2.027,-0.353 2.746,-1.058c0.719,-0.705 1.078,-1.628 1.078,-2.767l0,-16.48l16.48,0c1.112,0 2.021,-0.345 2.726,-1.037c0.705,-0.692 1.058,-1.567 1.058,-2.625c-0,-1.139 -0.353,-2.061 -1.058,-2.766c-0.705,-0.706 -1.614,-1.058 -2.726,-1.058l-16.48,-0l0,-16.439c0,-1.14 -0.359,-2.069 -1.078,-2.788c-0.719,-0.718 -1.634,-1.078 -2.746,-1.078c-1.086,0 -1.974,0.36 -2.666,1.078c-0.691,0.719 -1.037,1.648 -1.037,2.788l-0,16.439l-16.439,-0c-1.139,-0 -2.062,0.352 -2.767,1.057c-0.705,0.706 -1.058,1.628 -1.058,2.767Z" style="fill-rule:nonzero;"/></g><text x="1095.83px" y="8137.5px" style="font-family:'LucidaGrande-Bold', 'Lucida Grande', sans-serif;font-weight:600;font-size:54.167px;">Design Variations</text><text x="1095.83px" y="8212.5px" style="font-family:'LucidaGrande', 'Lucida Grande', sans-serif;font-weight:500;font-size:54.167px;">Symbols are supported in up to nine weights and three scales.</text><text x="1095.83px" y="8287.5px" style="font-family:'LucidaGrande', 'Lucida Grande', sans-serif;font-weight:500;font-size:54.167px;">For optimal layout with text and other symbols, vertically align</text><text x="1095.83px" y="8362.5px" style="font-family:'LucidaGrande', 'Lucida Grande', sans-serif;font-weight:500;font-size:54.167px;">symbols with the adjacent text.</text><path d="M3233.33,7995.83l0,58.334" style="fill:none;fill-rule:nonzero;stroke:#00aeef;stroke-width:2.08px;"/><g><path d="M3247.13,8054.82c1.085,-0 1.926,-0.231 2.523,-0.692c0.597,-0.461 1.085,-1.261 1.465,-2.401l5.249,-14.363l24.007,-0l5.249,14.363c0.38,1.14 0.868,1.94 1.465,2.401c0.597,0.461 1.424,0.692 2.482,0.692c1.085,-0 1.946,-0.299 2.584,-0.895c0.637,-0.597 0.956,-1.411 0.956,-2.442c0,-0.624 -0.149,-1.356 -0.447,-2.197l-19.084,-50.822c-0.488,-1.248 -1.153,-2.184 -1.994,-2.808c-0.841,-0.624 -1.912,-0.936 -3.214,-0.936c-2.523,0 -4.232,1.235 -5.127,3.703l-19.084,50.904c-0.298,0.84 -0.448,1.573 -0.448,2.197c0,1.031 0.305,1.838 0.916,2.421c0.61,0.583 1.444,0.875 2.502,0.875Zm11.231,-23.641l9.887,-27.385l0.204,0l9.888,27.385l-19.979,-0Z" style="fill-rule:nonzero;"/></g><path d="M3304.99,7995.83l-0.001,58.334" style="fill:none;fill-rule:nonzero;stroke:#00aeef;stroke-width:2.08px;"/><text x="3233.33px" y="8137.5px" style="font-family:'LucidaGrande-Bold', 'Lucida Grande', sans-serif;font-weight:600;font-size:54.167px;">Margins</text><text x="3233.33px" y="8212.5px" style="font-family:'LucidaGrande', 'Lucida Grande', sans-serif;font-weight:500;font-size:54.167px;">Leading and trailing margins on the left and right side of each symbol</text><text x="3233.33px" y="8287.5px" style="font-family:'LucidaGrande', 'Lucida Grande', sans-serif;font-weight:500;font-size:54.167px;">can be adjusted by modifying the x-location of the margin guidelines.</text><text x="3233.33px" y="8362.5px" style="font-family:'LucidaGrande', 'Lucida Grande', sans-serif;font-weight:500;font-size:54.167px;">Modiﬁcations are automatically applied proportionally to all</text><text x="3233.33px" y="8437.5px" style="font-family:'LucidaGrande', 'Lucida Grande', sans-serif;font-weight:500;font-size:54.167px;">scales and weights.</text><g><path d="M5382.67,8061.94l7.08,7.121c1.791,1.818 3.683,2.659 5.677,2.523c1.993,-0.136 3.953,-1.275 5.879,-3.418l44.556,-49.113l-4.028,-4.069l-44.231,48.665c-0.732,0.841 -1.471,1.316 -2.217,1.425c-0.746,0.108 -1.607,-0.326 -2.584,-1.302l-4.883,-4.843c-0.976,-0.976 -1.404,-1.837 -1.282,-2.583c0.123,-0.746 0.604,-1.499 1.445,-2.259l47.811,-45.003l-4.069,-4.028l-48.299,45.369c-2.062,1.899 -3.167,3.839 -3.317,5.819c-0.149,1.98 0.672,3.879 2.462,5.696Zm26.734,-75.805c-0.869,0.841 -1.357,1.804 -1.465,2.889c-0.109,1.085 0.081,2.034 0.569,2.848c0.489,0.76 1.201,1.329 2.137,1.709c0.935,0.38 2.082,0.407 3.438,0.081c3.038,-0.705 6.117,-0.996 9.237,-0.874c3.119,0.122 6.171,1.159 9.155,3.112l-2.441,6.063c-0.706,1.736 -0.902,3.249 -0.59,4.537c0.311,1.289 1.024,2.503 2.136,3.642l9.562,9.644c1.003,1.03 1.98,1.627 2.929,1.79c0.95,0.163 2.008,0.136 3.174,-0.082l4.436,-0.813l2.767,2.807l-0.163,2.32c-0.082,1.03 0.047,1.98 0.386,2.848c0.339,0.868 1.011,1.804 2.015,2.808l3.173,3.092c1.004,1.004 2.096,1.526 3.276,1.567c1.18,0.04 2.258,-0.428 3.235,-1.404l12.125,-12.167c0.977,-0.976 1.452,-2.041 1.424,-3.194c-0.027,-1.153 -0.542,-2.231 -1.546,-3.235l-3.214,-3.173c-0.977,-1.004 -1.892,-1.689 -2.747,-2.055c-0.854,-0.366 -1.783,-0.509 -2.787,-0.428l-2.401,0.204l-2.685,-2.645l1.017,-4.679c0.271,-1.167 0.217,-2.259 -0.163,-3.276c-0.38,-1.017 -1.18,-2.136 -2.401,-3.357l-9.155,-9.114c-3.472,-3.445 -7.168,-6.029 -11.088,-7.752c-3.92,-1.722 -7.867,-2.617 -11.841,-2.685c-3.974,-0.068 -7.799,0.657 -11.474,2.177c-3.676,1.519 -7.019,3.784 -10.03,6.795Zm6.225,1.546c2.523,-1.845 5.229,-3.16 8.118,-3.947c2.889,-0.787 5.812,-1.038 8.769,-0.753c2.956,0.285 5.825,1.079 8.605,2.381c2.781,1.302 5.324,3.119 7.63,5.452l10.132,10.051c0.488,0.488 0.793,0.963 0.915,1.424c0.122,0.461 0.102,1.044 -0.061,1.75l-1.343,6.184l6.267,6.185l4.11,-0.244c0.515,-0.027 0.908,0.007 1.18,0.102c0.271,0.095 0.61,0.346 1.017,0.753l2.401,2.4l-10.173,10.173l-2.401,-2.401c-0.407,-0.407 -0.665,-0.746 -0.773,-1.017c-0.108,-0.271 -0.149,-0.678 -0.122,-1.221l0.285,-4.069l-6.226,-6.185l-6.348,1.058c-0.678,0.136 -1.213,0.156 -1.607,0.061c-0.393,-0.095 -0.847,-0.386 -1.363,-0.875l-8.341,-8.341c-0.543,-0.488 -0.848,-0.956 -0.916,-1.404c-0.067,-0.448 0.061,-1.051 0.387,-1.811l3.662,-8.707c-3.255,-3.038 -6.917,-5.141 -10.987,-6.307c-4.068,-1.167 -8.219,-1.126 -12.451,0.122c-0.325,0.081 -0.535,0.02 -0.63,-0.183c-0.095,-0.204 -0.007,-0.414 0.264,-0.631Z" style="fill-rule:nonzero;"/></g><text x="5370.83px" y="8137.5px" style="font-family:'LucidaGrande-Bold', 'Lucida Grande', sans-serif;font-weight:600;font-size:54.167px;">Exporting</text><text x="5370.83px" y="8212.5px" style="font-family:'LucidaGrande', 'Lucida Grande', sans-serif;font-weight:500;font-size:54.167px;">Symbols should be outlined when exporting to ensure the</text><text x="5370.83px" y="8287.5px" style="font-family:'LucidaGrande', 'Lucida Grande', sans-serif;font-weight:500;font-size:54.167px;">design is preserved when submitting to Xcode.</text><text id="template-version" x="12256.9px" y="8054.17px" style="font-family:'LucidaGrande', 'Lucida Grande', sans-serif;font-weight:500;font-size:54.167px;">Template v.3.0</text><text x="11881.9px" y="8129.17px" style="font-family:'LucidaGrande', 'Lucida Grande', sans-serif;font-weight:500;font-size:54.167px;">Requires Xcode 13 or greater</text><text id="descriptive-name" x="12136.7px" y="8204.17px" style="font-family:'LucidaGrande', 'Lucida Grande', sans-serif;font-weight:500;font-size:54.167px;">Generated from pin</text><text x="12076.3px" y="8279.17px" style="font-family:'LucidaGrande', 'Lucida Grande', sans-serif;font-weight:500;font-size:54.167px;">Typeset at 100 points</text><text x="1095.83px" y="3025px" style="font-family:'LucidaGrande', 'Lucida Grande', sans-serif;font-weight:500;font-size:54.167px;">Small</text><text x="1095.83px" y="4816.67px" style="font-family:'LucidaGrande', 'Lucida Grande', sans-serif;font-weight:500;font-size:54.167px;">Medium</text><text x="1095.83px" y="6608.33px" style="font-family:'LucidaGrande', 'Lucida Grande', sans-serif;font-weight:500;font-size:54.167px;">Large</text></g><g id="Guides"><g id="H-reference"><path d="M1416.64,2900l11.018,0l107.044,-279.719l2.924,-0l0,-13.86l-7.947,-0l-113.039,293.579Zm44.562,-101.999l147.056,0l-3.127,-9.371l-140.804,0l-3.125,9.371Zm180.963,101.999l11.018,0l-113.023,-293.579l-5.023,-0l0,13.86l107.028,279.719Z" style="fill:#27aae1;fill-rule:nonzero;"/></g><path id="Baseline-S" d="M1095.83,2900l11554.2,0" style="fill:none;fill-rule:nonzero;stroke:#27aae1;stroke-width:2.08px;"/><path id="Capline-S" d="M1095.83,2606.42l11554.2,-0" style="fill:none;fill-rule:nonzero;stroke:#27aae1;stroke-width:2.08px;"/><g id="H-reference1" serif:id="H-reference"><path d="M1416.64,4691.67l11.018,-0l107.044,-279.72l2.924,0.001l0,-13.86l-7.947,-0.001l-113.039,293.58Zm44.562,-101.999l147.056,-0l-3.127,-9.371l-140.804,-0l-3.125,9.371Zm180.963,101.999l11.018,-0l-113.023,-293.579l-5.023,-0.001l0,13.86l107.028,279.72Z" style="fill:#27aae1;fill-rule:nonzero;"/></g><path id="Baseline-M" d="M1095.83,4691.67l11554.2,-0" style="fill:none;fill-rule:nonzero;stroke:#27aae1;stroke-width:2.08px;"/><path id="Capline-M" d="M1095.83,4398.08l11554.2,0" style="fill:none;fill-rule:nonzero;stroke:#27aae1;stroke-width:2.08px;"/><g id="H-reference2" serif:id="H-reference"><path d="M1416.64,6483.33l11.018,0l107.044,-279.719l2.924,0l0,-13.86l-7.947,0l-113.039,293.579Zm44.562,-101.998l147.056,-0l-3.127,-9.372l-140.804,0l-3.125,9.372Zm180.963,101.998l11.018,0l-113.023,-293.579l-5.023,0l0,13.86l107.028,279.719Z" style="fill:#27aae1;fill-rule:nonzero;"/></g><path id="Baseline-L" d="M1095.83,6483.33l11554.2,0" style="fill:none;fill-rule:nonzero;stroke:#27aae1;stroke-width:2.08px;"/><path id="Capline-L" d="M1095.83,6189.75l11554.2,0" style="fill:none;fill-rule:nonzero;stroke:#27aae1;stroke-width:2.08px;"/><path id="left-margin-Ultralight-S" d="M2166.02,2503.27l-0,497.233" style="fill:none;fill-rule:nonzero;stroke:#00aeef;stroke-width:2.08px;"/><path id="right-margin-Ultralight-S" d="M2498.25,2503.27l-0,497.233" style="fill:none;fill-rule:nonzero;stroke:#00aeef;stroke-width:2.08px;"/><path id="left-margin-Regular-S" d="M5849.25,2503.27l0,497.233" style="fill:none;fill-rule:nonzero;stroke:#00aeef;stroke-width:2.08px;"/><path id="right-margin-Regular-S" d="M6232.75,2503.27l0,497.233" style="fill:none;fill-rule:nonzero;stroke:#00aeef;stroke-width:2.08px;"/><path id="left-margin-Black-S" d="M12021.5,2503.27l0,497.233" style="fill:none;fill-rule:nonzero;stroke:#00aeef;stroke-width:2.08px;"/><path id="right-margin-Black-S" d="M12423.5,2503.27l0,497.233" style="fill:none;fill-rule:nonzero;stroke:#00aeef;stroke-width:2.08px;"/></g><g id="Symbols"><g id="Black-S"><path d="M12225.9,3014.38c0,-0 0.381,-60.206 -38.662,-124.785c0,-0 25.869,1.386 38.662,1.281c12.836,-0.106 38.666,-1.281 38.666,-1.281c-37.974,65.212 -38.666,124.785 -38.666,124.785Z" style="fill-rule:nonzero;"/><path d="M12225.9,3014.38c0,-0 0.381,-60.206 -38.662,-124.785c0,-0 25.869,1.386 38.662,1.281c12.836,-0.106 38.666,-1.281 38.666,-1.281c-37.974,65.212 -38.666,124.785 -38.666,124.785Zm0.21,-34.887c-4.254,-22.318 -13.079,-53.06 -31.385,-85.357c8.714,0.403 22.781,0.976 31.209,0.907c8.49,-0.07 22.641,-0.606 31.31,-0.963c-17.832,32.51 -26.712,63.183 -31.133,85.413l-0.001,0Z"/><path d="M12310,2642.43c-0,-0 -45.395,5.747 -84.116,5.747c-38.721,-0 -84.12,-5.747 -84.12,-5.747l6.294,165.797l11.474,4.702c-19.616,-8.863 -107.871,18.686 -88.296,37.617c36.214,35.031 265.072,35.69 309.296,0c21.192,-17.1 -68.806,-46.754 -88.296,-37.617l11.494,-4.702l6.27,-165.797Zm44.931,-91.099c-74.019,-22.246 -179.628,-25.645 -258.094,-0c-13.892,4.54 -16.181,47.565 0.022,57.47c45.16,27.613 213.454,28.824 258.072,0c15.858,-10.244 13.936,-53.283 0,-57.47Z" style="fill-rule:nonzero;stroke:#000;stroke-width:8.33px;stroke-linecap:square;stroke-linejoin:round;stroke-miterlimit:2;"/></g><g id="Black-M"><path d="M12225.9,4790.01c0,0 0.404,-63.825 -40.986,-132.286c0,0 27.424,1.47 40.986,1.358c13.608,-0.111 40.99,-1.358 40.99,-1.358c-40.256,69.133 -40.99,132.286 -40.99,132.286Z" style="fill-rule:nonzero;"/><path d="M12225.9,4790.01c0,0 0.404,-63.825 -40.986,-132.286c0,0 27.424,1.47 40.986,1.358c13.608,-0.111 40.99,-1.358 40.99,-1.358c-40.256,69.133 -40.99,132.286 -40.99,132.286Zm0.217,-35.661c-4.427,-23.824 -13.812,-57.107 -33.708,-92.082c9.194,0.428 24.447,1.057 33.526,0.982c9.144,-0.075 24.484,-0.66 33.627,-1.039c-19.378,35.209 -28.832,68.412 -33.443,92.14l-0.002,-0.001Z"/><path d="M12315.1,4395.71c0,0 -48.123,6.093 -89.172,6.093c-41.049,-0 -89.176,-6.093 -89.176,-6.093l6.672,175.764l12.164,4.985c-20.795,-9.396 -114.356,19.809 -93.603,39.878c38.39,37.136 281.005,37.834 327.887,-0c22.466,-18.128 -72.942,-49.565 -93.603,-39.878l12.185,-4.985l6.646,-175.764Zm47.633,-96.575c-78.469,-23.583 -190.427,-27.186 -273.609,-0c-14.727,4.813 -17.153,50.424 0.023,60.925c47.874,29.273 226.285,30.556 273.586,-0c16.811,-10.86 14.773,-56.486 -0,-60.925Z" style="fill-rule:nonzero;stroke:#000;stroke-width:8.33px;stroke-linecap:square;stroke-linejoin:round;stroke-miterlimit:2;"/></g><g id="Bold-M"><path d="M9800.87,4784.7c0,0 0.395,-62.494 -40.131,-129.527c0,0 26.852,1.439 40.131,1.33c13.324,-0.109 40.135,-1.33 40.135,-1.33c-39.416,67.691 -40.135,129.527 -40.135,129.527Z" style="fill-rule:nonzero;"/><path d="M9800.87,4784.7c0,0 0.395,-62.494 -40.131,-129.527c0,0 26.852,1.439 40.131,1.33c13.324,-0.109 40.135,-1.33 40.135,-1.33c-39.416,67.691 -40.135,129.527 -40.135,129.527Zm0.215,-35.38c-4.364,-23.272 -13.545,-55.617 -32.854,-89.605c9.019,0.42 23.834,1.027 32.674,0.955c8.903,-0.074 23.805,-0.64 32.775,-1.011c-18.808,34.213 -28.052,66.482 -32.594,89.661l-0.001,0Z"/><path d="M9888.18,4398.61c-0,0 -47.12,5.966 -87.313,5.966c-40.192,-0 -87.316,-5.966 -87.316,-5.966l6.533,172.098l11.91,4.881c-20.362,-9.2 -111.971,19.396 -91.651,39.046c37.59,36.362 275.144,37.045 321.049,0c21.997,-17.75 -71.421,-48.531 -91.651,-39.046l11.931,-4.881l6.508,-172.098Zm46.638,-94.561c-76.832,-23.091 -186.454,-26.619 -267.902,0c-14.42,4.713 -16.795,49.373 0.023,59.655c46.876,28.662 221.565,29.919 267.879,-0c16.461,-10.634 14.466,-55.308 0,-59.655Z" style="fill-rule:nonzero;stroke:#000;stroke-width:8.33px;stroke-linecap:square;stroke-linejoin:round;stroke-miterlimit:2;"/></g><g id="Black-L"><path d="M12225.8,6711.42c-0,-0 0.534,-84.47 -54.243,-175.075c-0,0 36.294,1.945 54.243,1.798c18.009,-0.148 54.248,-1.798 54.248,-1.798c-53.277,91.494 -54.248,175.075 -54.248,175.075Z" style="fill-rule:nonzero;"/><path d="M12225.8,6711.42c-0,-0 0.534,-84.47 -54.243,-175.075c-0,0 36.294,1.945 54.243,1.798c18.009,-0.148 54.248,-1.798 54.248,-1.798c-53.277,91.494 -54.248,175.075 -54.248,175.075Zm0.254,-39.579c-5.29,-32.142 -17.729,-80.295 -46.969,-130.946c11.709,0.56 33.905,1.52 46.749,1.414c12.931,-0.106 35.232,-0.984 46.858,-1.474c-28.459,51.006 -41.06,99.006 -46.637,131.006l-0.001,-0Z"/><path d="M12343.9,6189.57c0,-0 -63.689,8.063 -118.015,8.063c-54.326,-0 -118.021,-8.063 -118.021,-8.063l8.83,232.615l16.098,6.597c-27.521,-12.435 -151.344,26.216 -123.879,52.777c50.808,49.147 371.897,50.072 433.944,-0c29.732,-23.992 -96.536,-65.597 -123.879,-52.777l16.126,-6.597l8.796,-232.615Zm63.039,-127.813c-103.85,-31.211 -252.02,-35.98 -362.108,-0c-19.491,6.37 -22.702,66.734 0.031,80.631c63.359,38.742 299.477,40.44 362.077,0c22.249,-14.372 19.552,-74.756 0,-80.631Z" style="fill-rule:nonzero;stroke:#000;stroke-width:8.33px;stroke-linecap:square;stroke-linejoin:round;stroke-miterlimit:2;"/></g><g id="Bold-L"><path d="M9864.24,6688.9c0,0 0.499,-78.833 -50.623,-163.391c0,0 33.873,1.815 50.623,1.678c16.808,-0.139 50.628,-1.678 50.628,-1.678c-49.721,85.388 -50.628,163.391 -50.628,163.391Z" style="fill-rule:nonzero;"/><path d="M9864.24,6688.9c0,0 0.499,-78.833 -50.623,-163.391c0,0 33.873,1.815 50.623,1.678c16.808,-0.139 50.628,-1.678 50.628,-1.678c-49.721,85.388 -50.628,163.391 -50.628,163.391Zm0.245,-38.582c-5.072,-29.913 -16.7,-73.95 -43.348,-120.261c11.056,0.526 31.329,1.393 43.138,1.296c11.888,-0.098 32.263,-0.894 43.244,-1.355c-25.94,46.633 -37.702,90.538 -43.033,120.321l-0.001,-0.001Z"/><path d="M9974.38,6201.87c0,0 -59.439,7.525 -110.14,7.525c-50.701,0 -110.144,-7.525 -110.144,-7.525l8.24,217.092l15.024,6.157c-25.685,-11.605 -141.245,24.467 -115.612,49.255c47.417,45.868 347.079,46.731 404.985,0c27.748,-22.39 -90.093,-61.219 -115.612,-49.255l15.05,-6.157l8.209,-217.092Zm58.832,-119.283c-96.92,-29.129 -235.202,-33.579 -337.944,-0c-18.19,5.945 -21.186,62.28 0.029,75.25c59.131,36.157 279.493,37.742 337.915,0c20.764,-13.413 18.248,-69.767 0,-75.25Z" style="fill-rule:nonzero;stroke:#000;stroke-width:8.33px;stroke-linecap:square;stroke-linejoin:round;stroke-miterlimit:2;"/></g><g id="Regular-L"><path d="M6042.53,6671.14c0,-0 0.47,-74.387 -47.768,-154.176c-0,-0 31.962,1.713 47.768,1.583c15.859,-0.131 47.772,-1.583 47.772,-1.583c-46.917,80.572 -47.772,154.176 -47.772,154.176Z" style="fill-rule:nonzero;"/><path d="M6042.53,6671.14c0,-0 0.47,-74.387 -47.768,-154.176c-0,-0 31.962,1.713 47.768,1.583c15.859,-0.131 47.772,-1.583 47.772,-1.583c-46.917,80.572 -47.772,154.176 -47.772,154.176Zm0.236,-37.76c-4.891,-28.134 -15.867,-68.952 -40.49,-111.87c10.522,0.498 29.293,1.294 40.288,1.203c11.071,-0.091 29.94,-0.824 40.395,-1.261c-23.974,43.214 -35.063,83.917 -40.191,111.931l-0.002,-0.003Z"/><path d="M6146.46,6211.58c-0,0 -56.087,7.101 -103.928,7.101c-47.841,-0 -103.933,-7.101 -103.933,-7.101l7.776,204.849l14.177,5.809c-24.236,-10.95 -133.279,23.087 -109.092,46.477c44.743,43.282 327.504,44.095 382.144,0c26.184,-21.127 -85.012,-57.767 -109.092,-46.477l14.202,-5.809l7.746,-204.849Zm55.514,-112.556c-91.454,-27.485 -221.937,-31.684 -318.884,0c-17.164,5.61 -19.992,58.768 0.027,71.007c55.796,34.117 263.73,35.613 318.857,-0c19.593,-12.657 17.218,-65.833 0,-71.007Z" style="fill-rule:nonzero;stroke:#000;stroke-width:8.33px;stroke-linecap:square;stroke-linejoin:round;stroke-miterlimit:2;"/></g><g id="Ultralight-L"><path d="M2322.73,6613.44c0,0 0.379,-59.945 -38.494,-124.245c-0,0 25.757,1.381 38.494,1.276c12.781,-0.105 38.498,-1.276 38.498,-1.276c-37.808,64.931 -38.498,124.245 -38.498,124.245Z" style="fill-rule:nonzero;"/><path d="M2322.73,6613.44c0,0 0.379,-59.945 -38.494,-124.245c-0,0 25.757,1.381 38.494,1.276c12.781,-0.105 38.498,-1.276 38.498,-1.276c-37.808,64.931 -38.498,124.245 -38.498,124.245Zm0.21,-34.83c-4.241,-22.209 -13.026,-52.769 -31.218,-84.874c8.679,0.402 22.661,0.971 31.043,0.902c8.442,-0.07 22.508,-0.602 31.143,-0.958c-17.722,32.317 -26.561,62.809 -30.967,84.931l-0.001,-0.001Z"/><path d="M2406.48,6243.11c0,0 -45.198,5.723 -83.752,5.723c-38.553,-0 -83.755,-5.723 -83.755,-5.723l6.266,165.08l11.424,4.682c-19.531,-8.825 -107.404,18.605 -87.913,37.454c36.057,34.879 263.924,35.535 307.957,0c21.1,-17.026 -68.509,-46.552 -87.914,-37.454l11.445,-4.682l6.242,-165.08Zm44.737,-90.704c-73.699,-22.15 -178.851,-25.534 -256.977,-0c-13.832,4.52 -16.111,47.359 0.022,57.221c44.964,27.494 212.53,28.699 256.955,0c15.789,-10.2 13.875,-53.052 0,-57.221Z" style="fill-rule:nonzero;stroke:#000;stroke-width:8.33px;stroke-linecap:square;stroke-linejoin:round;stroke-miterlimit:2;"/></g><g id="Regular-M"><path d="M6042.56,4832.83c0,-0 0.424,-66.976 -43.009,-138.816c0,-0 28.778,1.542 43.009,1.425c14.279,-0.117 43.013,-1.425 43.013,-1.425c-42.243,72.545 -43.013,138.816 -43.013,138.816Z" style="fill-rule:nonzero;"/><path d="M6042.56,4832.83c0,-0 0.424,-66.976 -43.009,-138.816c0,-0 28.778,1.542 43.009,1.425c14.279,-0.117 43.013,-1.425 43.013,-1.425c-42.243,72.545 -43.013,138.816 -43.013,138.816Zm0.223,-36.311c-4.571,-25.122 -14.438,-60.635 -35.731,-97.961c9.6,0.449 25.894,1.127 35.543,1.048c9.716,-0.08 26.101,-0.709 35.645,-1.105c-20.736,37.578 -30.685,73.002 -35.455,98.021l-0.002,-0.003Z"/><path d="M6136.13,4419.05c0,0 -50.499,6.394 -93.574,6.394c-43.075,-0 -93.578,-6.394 -93.578,-6.394l7.001,184.44l12.764,5.231c-21.821,-9.859 -120,20.787 -98.223,41.847c40.285,38.969 294.876,39.702 344.073,-0c23.574,-19.023 -76.543,-52.012 -98.224,-41.847l12.787,-5.231l6.974,-184.44Zm49.984,-101.342c-82.343,-24.747 -199.827,-28.528 -287.115,-0c-15.454,5.051 -18,52.913 0.024,63.932c50.238,30.718 237.455,32.065 287.091,0c17.641,-11.396 15.502,-59.274 -0,-63.932Z" style="fill-rule:nonzero;stroke:#000;stroke-width:8.33px;stroke-linecap:square;stroke-linejoin:round;stroke-miterlimit:2;"/></g><g id="Ultralight-M"><path d="M2342.97,4758.12c-0,0 0.305,-48.275 -31.001,-100.056c0,-0 20.743,1.112 31.001,1.027c10.292,-0.084 31.003,-1.027 31.003,-1.027c-30.448,52.289 -31.003,100.056 -31.003,100.056Z" style="fill-rule:nonzero;"/><path d="M2342.97,4758.12c-0,0 0.305,-48.275 -31.001,-100.056c0,-0 20.743,1.112 31.001,1.027c10.292,-0.084 31.003,-1.027 31.003,-1.027c-30.448,52.289 -31.003,100.056 -31.003,100.056Zm0.183,-32.102c-3.623,-17.239 -10.536,-39.772 -23.731,-63.42c7.03,0.316 17.273,0.712 23.582,0.66c6.358,-0.053 16.672,-0.43 23.677,-0.714c-12.865,23.798 -19.794,46.296 -23.526,63.475l-0.002,-0.001Z"/><path d="M2410.41,4459.88c0,0 -36.398,4.608 -67.446,4.608c-31.048,0 -67.45,-4.608 -67.45,-4.608l5.046,132.942l9.2,3.77c-15.728,-7.107 -86.494,14.983 -70.798,30.163c29.037,28.088 212.543,28.616 248.003,-0c16.992,-13.712 -55.171,-37.49 -70.798,-30.163l9.216,-3.77l5.027,-132.942Zm36.028,-73.046c-59.351,-17.837 -144.032,-20.563 -206.948,-0c-11.139,3.641 -12.974,38.139 0.017,46.082c36.211,22.141 171.154,23.111 206.931,-0c12.715,-8.215 11.174,-42.724 -0,-46.082Z" style="fill-rule:nonzero;stroke:#000;stroke-width:8.33px;stroke-linecap:square;stroke-linejoin:round;stroke-miterlimit:2;"/></g><g id="Regular-S"><path d="M6040.23,2944.88c0,-0 0.279,-44.103 -28.321,-91.408c0,-0 18.95,1.015 28.321,0.938c9.403,-0.077 28.323,-0.938 28.323,-0.938c-27.816,47.77 -28.323,91.408 -28.323,91.408Z" style="fill-rule:nonzero;"/><path d="M6040.23,2944.88c0,-0 0.279,-44.103 -28.321,-91.408c0,-0 18.95,1.015 28.321,0.938c9.403,-0.077 28.323,-0.938 28.323,-0.938c-27.816,47.77 -28.323,91.408 -28.323,91.408Zm0.173,-31.019c-3.373,-15.417 -9.592,-35.155 -21.057,-55.857c6.395,0.282 15.339,0.619 20.918,0.573c5.624,-0.047 14.633,-0.371 21.011,-0.627c-11.183,20.832 -17.407,40.545 -20.87,55.911l-0.002,-0Z"/><path d="M6101.85,2672.42c-0,-0 -33.253,4.21 -61.617,4.21c-28.364,-0 -61.62,-4.21 -61.62,-4.21l4.61,121.451l8.405,3.444c-14.369,-6.492 -79.018,13.688 -64.678,27.556c26.527,25.66 194.171,26.143 226.566,-0c15.524,-12.527 -50.402,-34.249 -64.678,-27.556l8.419,-3.444l4.593,-121.451Zm32.913,-66.733c-54.221,-16.295 -131.582,-18.785 -189.06,0c-10.177,3.326 -11.853,34.843 0.016,42.099c33.08,20.227 156.36,21.114 189.044,0c11.617,-7.504 10.209,-39.031 0,-42.099Z" style="fill-rule:nonzero;stroke:#000;stroke-width:4.17px;stroke-linecap:square;stroke-linejoin:round;stroke-miterlimit:2;"/></g><g id="Bold-S"><path d="M9762.18,2991.06c-0,-0 0.352,-55.662 -35.744,-115.366c0,-0 23.916,1.282 35.744,1.184c11.867,-0.097 35.747,-1.184 35.747,-1.184c-35.107,60.29 -35.747,115.366 -35.747,115.366Z" style="fill-rule:nonzero;"/><path d="M9762.18,2991.06c-0,-0 0.352,-55.662 -35.744,-115.366c0,-0 23.916,1.282 35.744,1.184c11.867,-0.097 35.747,-1.184 35.747,-1.184c-35.107,60.29 -35.747,115.366 -35.747,115.366Zm0.199,-33.877c-4.026,-20.405 -12.135,-47.985 -28.468,-76.95c8.093,0.371 20.687,0.875 28.303,0.812c7.673,-0.063 20.346,-0.538 28.401,-0.868c-15.915,29.155 -24.063,56.679 -28.233,77.007l-0.003,-0.001Z"/><path d="M9839.94,2647.18c0,-0 -41.968,5.313 -77.766,5.313c-35.799,-0 -77.77,-5.313 -77.77,-5.313l5.818,153.282l10.608,4.347c-18.135,-8.194 -99.729,17.276 -81.631,34.778c33.48,32.386 245.063,32.995 285.949,-0c19.592,-15.809 -63.612,-43.225 -81.63,-34.778l10.626,-4.347l5.796,-153.282Zm41.54,-84.223c-68.432,-20.567 -166.07,-23.709 -238.613,-0c-12.843,4.197 -14.959,43.974 0.021,53.132c41.751,25.529 197.342,26.648 238.592,0c14.661,-9.471 12.884,-49.261 0,-53.132Z" style="fill-rule:nonzero;stroke:#000;stroke-width:4.17px;stroke-linecap:square;stroke-linejoin:round;stroke-miterlimit:2;"/></g><g id="Ultralight-S"><path d="M2339.08,2944.37c0,-0 0.266,-42.047 -27.001,-87.148c0,0 18.067,0.969 27.001,0.895c8.964,-0.074 27.003,-0.895 27.003,-0.895c-26.52,45.544 -27.003,87.148 -27.003,87.148Z" style="fill-rule:nonzero;"/><path d="M2339.08,2944.37c0,-0 0.266,-42.047 -27.001,-87.148c0,0 18.067,0.969 27.001,0.895c8.964,-0.074 27.003,-0.895 27.003,-0.895c-26.52,45.544 -27.003,87.148 -27.003,87.148Zm0.167,-30.461c-3.243,-14.511 -9.113,-32.888 -19.74,-52.158c6.073,0.267 14.385,0.576 19.607,0.533c5.264,-0.044 13.64,-0.343 19.698,-0.584c-10.367,19.388 -16.238,37.746 -19.563,52.21l-0.002,-0.001Z"/><path d="M2397.83,2684.61c0,-0 -31.703,4.013 -58.745,4.013c-27.042,0 -58.748,-4.013 -58.748,-4.013l4.396,115.79l8.013,3.283c-13.699,-6.189 -75.335,13.05 -61.664,26.272c25.291,24.464 185.121,24.924 216.006,-0c14.8,-11.943 -48.053,-32.653 -61.664,-26.272l8.028,-3.283l4.378,-115.79Zm31.379,-63.622c-51.694,-15.536 -125.449,-17.91 -180.248,-0c-9.702,3.171 -11.3,33.218 0.015,40.136c31.539,19.285 149.073,20.13 180.233,0c11.075,-7.154 9.733,-37.212 0,-40.136Z" style="fill-rule:nonzero;"/></g></g></svg>