<?xml version="1.0" encoding="UTF-8" standalone="no"?><!DOCTYPE svg PUBLIC "-//W3C//DTD SVG 1.1//EN" "http://www.w3.org/Graphics/SVG/1.1/DTD/svg11.dtd"><svg width="100%" height="100%" viewBox="0 0 125 125" version="1.1" xmlns="http://www.w3.org/2000/svg" xmlns:xlink="http://www.w3.org/1999/xlink" xml:space="preserve" xmlns:serif="http://www.serif.com/" style="fill-rule:evenodd;clip-rule:evenodd;stroke-miterlimit:10;"><g id="Ebene-1" serif:id="Ebene 1"><path d="M114.583,62.5c0,-28.746 -23.337,-52.083 -52.083,-52.083c-28.746,-0 -52.083,23.337 -52.083,52.083c-0,28.746 23.337,52.083 52.083,52.083c28.746,0 52.083,-23.337 52.083,-52.083Z" style="fill:#15845d;stroke:#15845d;stroke-width:4.17px;"/><path d="M62.5,56.188c-3.484,0 -6.312,2.822 -6.312,6.312c0,3.484 2.828,6.312 6.312,6.312c3.49,-0 6.312,-2.828 6.312,-6.312c-0,-3.49 -2.822,-6.312 -6.312,-6.312" style="fill:#fff;fill-rule:nonzero;"/><path d="M62.5,54.167l0,-22.886" style="fill:none;fill-rule:nonzero;stroke:#fff;stroke-width:4.17px;"/><path d="M62.5,108.263l0,-12.669" style="fill:none;fill-rule:nonzero;stroke:#fff;stroke-width:4.17px;"/><path d="M16.737,62.629l12.392,0" style="fill:none;fill-rule:nonzero;stroke:#fff;stroke-width:4.17px;"/><path d="M95.941,62.629l12.382,0" style="fill:none;fill-rule:nonzero;stroke:#fff;stroke-width:4.17px;"/><path d="M69.771,29.258l-7.271,-12.591l-7.27,12.591l14.541,0Z" style="fill:#fff;fill-rule:nonzero;"/><path d="M83.221,82.745l-14.753,-14.752" style="fill:none;fill-rule:nonzero;stroke:#fff;stroke-width:4.17px;"/><path d="M89.437,80.148l3.225,12.041l-12.037,-3.229l8.812,-8.812Z" style="fill:#fff;fill-rule:nonzero;"/><path d="M30.124,30.203l5.794,5.793" style="fill:none;fill-rule:nonzero;stroke:#fff;stroke-width:4.17px;"/><path d="M94.752,30.111l-5.794,5.794" style="fill:none;fill-rule:nonzero;stroke:#fff;stroke-width:4.17px;"/><path d="M35.784,89.079l-5.793,5.794" style="fill:none;fill-rule:nonzero;stroke:#fff;stroke-width:4.17px;"/></g></svg>