<?xml version="1.0" encoding="UTF-8" standalone="no"?><!DOCTYPE svg PUBLIC "-//W3C//DTD SVG 1.1//EN" "http://www.w3.org/Graphics/SVG/1.1/DTD/svg11.dtd"><svg width="100%" height="100%" viewBox="0 0 125 125" version="1.1" xmlns="http://www.w3.org/2000/svg" xmlns:xlink="http://www.w3.org/1999/xlink" xml:space="preserve" xmlns:serif="http://www.serif.com/" style="fill-rule:evenodd;clip-rule:evenodd;stroke-miterlimit:10;"><g id="Ebene-1" serif:id="Ebene 1"><path d="M114.583,62.5c0,-28.746 -23.337,-52.083 -52.083,-52.083c-28.746,-0 -52.083,23.337 -52.083,52.083c-0,28.746 23.337,52.083 52.083,52.083c28.746,0 52.083,-23.337 52.083,-52.083Z" style="fill:#15845d;stroke:#15845d;stroke-width:4.17px;"/><path d="M57.333,57.336c-2.853,2.852 -2.858,7.477 -0,10.334c2.852,2.853 7.482,2.853 10.334,0c2.857,-2.857 2.852,-7.482 0,-10.334c-2.857,-2.858 -7.477,-2.858 -10.334,-0" style="fill:#fff;fill-rule:nonzero;"/><path d="M55.379,55.382l-16.224,-16.224" style="fill:none;fill-rule:nonzero;stroke:#fff;stroke-width:4.17px;"/><path d="M45.047,30.402l-14.955,-0.308l0.307,14.955l14.648,-14.647Z" style="fill:#fff;fill-rule:nonzero;"/><path d="M85.845,85.848l-16.109,-16.109" style="fill:none;fill-rule:nonzero;stroke:#fff;stroke-width:4.17px;"/><path d="M94.586,79.968l0.324,14.944l-14.944,-0.323l14.62,-14.621Z" style="fill:#fff;fill-rule:nonzero;"/><path d="M39.154,85.848l16.257,-16.256" style="fill:none;fill-rule:nonzero;stroke:#fff;stroke-width:4.17px;"/><path d="M45.066,94.624l-14.974,0.287l0.288,-14.974l14.686,14.687Z" style="fill:#fff;fill-rule:nonzero;"/><path d="M85.846,39.156l-16.348,16.349" style="fill:none;fill-rule:nonzero;stroke:#fff;stroke-width:4.17px;"/><path d="M79.971,30.416l14.941,-0.326l-0.326,14.941l-14.615,-14.615Z" style="fill:#fff;fill-rule:nonzero;"/></g></svg>