<?xml version="1.0" encoding="UTF-8" standalone="no"?><!DOCTYPE svg PUBLIC "-//W3C//DTD SVG 1.1//EN" "http://www.w3.org/Graphics/SVG/1.1/DTD/svg11.dtd"><svg width="100%" height="100%" viewBox="0 0 125 125" version="1.1" xmlns="http://www.w3.org/2000/svg" xmlns:xlink="http://www.w3.org/1999/xlink" xml:space="preserve" xmlns:serif="http://www.serif.com/" style="fill-rule:evenodd;clip-rule:evenodd;stroke-miterlimit:10;"><g id="Ebene-1" serif:id="Ebene 1"><path d="M114.583,62.5c0,-28.746 -23.337,-52.083 -52.083,-52.083c-28.746,-0 -52.083,23.337 -52.083,52.083c-0,28.746 23.337,52.083 52.083,52.083c28.746,0 52.083,-23.337 52.083,-52.083Z" style="fill:#15845d;stroke:#15845d;stroke-width:4.17px;"/><path d="M90.17,56.442c0,-6.426 -5.217,-11.644 -11.644,-11.644l-32.052,0c-6.427,0 -11.644,5.218 -11.644,11.644l-0,23.288c-0,6.426 5.217,11.644 11.644,11.644l32.052,-0c6.427,-0 11.644,-5.218 11.644,-11.644l0,-23.288Z" style="fill:none;stroke:#fff;stroke-width:4.17px;stroke-linecap:round;stroke-linejoin:round;stroke-miterlimit:1.5;"/><path d="M47.751,38.851c0,-8.14 6.609,-14.748 14.749,-14.748c8.14,-0 14.749,6.608 14.749,14.748" style="fill:none;stroke:#fff;stroke-width:4.17px;stroke-linecap:round;stroke-linejoin:round;stroke-miterlimit:1.5;"/><circle cx="62.5" cy="73.956" r="5.292" style="fill:#fff;stroke:#fff;stroke-width:4.17px;stroke-linecap:round;stroke-linejoin:round;stroke-miterlimit:1.5;"/><path d="M62.459,62.47l0.114,10.232" style="fill:none;stroke:#fff;stroke-width:8.33px;stroke-linecap:round;stroke-linejoin:round;stroke-miterlimit:1.5;"/></g></svg>