<?xml version="1.0" encoding="UTF-8" standalone="no"?><!DOCTYPE svg PUBLIC "-//W3C//DTD SVG 1.1//EN" "http://www.w3.org/Graphics/SVG/1.1/DTD/svg11.dtd"><svg width="100%" height="100%" viewBox="0 0 125 125" version="1.1" xmlns="http://www.w3.org/2000/svg" xmlns:xlink="http://www.w3.org/1999/xlink" xml:space="preserve" xmlns:serif="http://www.serif.com/" style="fill-rule:evenodd;clip-rule:evenodd;stroke-miterlimit:10;"><g id="Ebene-1" serif:id="Ebene 1"><path d="M114.583,62.5c0,-28.746 -23.337,-52.083 -52.083,-52.083c-28.746,-0 -52.083,23.337 -52.083,52.083c-0,28.746 23.337,52.083 52.083,52.083c28.746,0 52.083,-23.337 52.083,-52.083Z" style="fill:#15845d;stroke:#15845d;stroke-width:4.17px;"/><path d="M52.083,80.994l20.834,-0" style="fill:none;fill-rule:nonzero;stroke:#fff;stroke-width:4.17px;stroke-linecap:round;"/><path d="M52.083,68.832l20.834,-0" style="fill:none;fill-rule:nonzero;stroke:#fff;stroke-width:4.17px;stroke-linecap:round;"/><path d="M52.083,55.757l20.834,-0" style="fill:none;fill-rule:nonzero;stroke:#fff;stroke-width:4.17px;stroke-linecap:round;"/><path d="M52.083,42.863l20.834,0" style="fill:none;fill-rule:nonzero;stroke:#fff;stroke-width:4.17px;stroke-linecap:round;"/><path d="M80.529,42.641c0,-4.975 -4.039,-9.015 -9.014,-9.015l-18.03,0c-4.975,0 -9.014,4.04 -9.014,9.015l-0,39.718c-0,4.975 4.039,9.015 9.014,9.015l18.03,-0c4.975,-0 9.014,-4.04 9.014,-9.015l0,-39.718Z" style="fill:none;stroke:#fff;stroke-width:4.17px;stroke-linecap:round;stroke-linejoin:round;stroke-miterlimit:1.5;"/><path d="M70.01,28.678c-0,-0.85 -0.691,-1.54 -1.541,-1.54l-12.162,-0c-0.85,-0 -1.541,0.69 -1.541,1.54l0,3.081c0,0.851 0.691,1.541 1.541,1.541l12.162,-0c0.85,-0 1.541,-0.69 1.541,-1.541l-0,-3.081Z" style="fill:none;stroke:#fff;stroke-width:4.17px;stroke-linecap:round;stroke-linejoin:round;stroke-miterlimit:1.5;"/></g></svg>