<?xml version="1.0" encoding="UTF-8" standalone="no"?><!DOCTYPE svg PUBLIC "-//W3C//DTD SVG 1.1//EN" "http://www.w3.org/Graphics/SVG/1.1/DTD/svg11.dtd"><svg width="25%" height="25%" viewBox="0 0 125 125" version="1.1" xmlns="http://www.w3.org/2000/svg" xmlns:xlink="http://www.w3.org/1999/xlink" xml:space="preserve" xmlns:serif="http://www.serif.com/" style="fill-rule:evenodd;clip-rule:evenodd;stroke-miterlimit:10;"><g id="Ebene-1" serif:id="Ebene 1"><path d="M114.583,62.5c0,-28.746 -23.337,-52.083 -52.083,-52.083c-28.746,-0 -52.083,23.337 -52.083,52.083c-0,28.746 23.337,52.083 52.083,52.083c28.746,0 52.083,-23.337 52.083,-52.083Z" style="fill:none;stroke:#000;stroke-width:4.17px;"/><path d="M20.833,93.416c5.588,0 19.941,-9.504 11.333,-18.504c-16.812,-17.604 -8.958,-42.696 13.913,-43.329" style="fill:none;fill-rule:nonzero;stroke:#000;stroke-width:4.17px;"/><path d="M45.59,31.584c22.867,0.633 30.725,25.725 13.909,43.325c-8.609,9.004 -2.581,18.508 3.002,18.508" style="fill:none;fill-rule:nonzero;stroke:#000;stroke-width:4.17px;"/><path d="M62.5,93.416c5.588,0 11.607,-9.504 3.003,-18.504c-16.817,-17.604 -8.963,-42.696 13.908,-43.329" style="fill:none;fill-rule:nonzero;stroke:#000;stroke-width:4.17px;"/><path d="M78.923,31.584c22.87,0.633 30.725,25.725 13.908,43.325c-8.604,9.004 5.748,18.508 11.336,18.508" style="fill:none;fill-rule:nonzero;stroke:#000;stroke-width:4.17px;"/></g></svg>