<?xml version="1.0" encoding="UTF-8" standalone="no"?>
<!DOCTYPE svg PUBLIC "-//W3C//DTD SVG 1.1//EN" "http://www.w3.org/Graphics/SVG/1.1/DTD/svg11.dtd">
<svg width="100%" height="100%" viewBox="0 0 1024 1024" version="1.1" xmlns="http://www.w3.org/2000/svg" xmlns:xlink="http://www.w3.org/1999/xlink" xml:space="preserve" xmlns:serif="http://www.serif.com/" style="fill-rule:evenodd;clip-rule:evenodd;stroke-linejoin:round;stroke-miterlimit:2;">
    <path d="M943,511.999C943,750.027 750.032,943 512,943C273.964,943 81,750.027 81,511.999C81,273.973 273.964,81 512,81C750.032,81 943,273.973 943,511.999Z" style="fill:none;fill-rule:nonzero;stroke:black;stroke-width:60px;"/>
    <g transform="matrix(0.781148,0.624345,-0.624345,0.781148,437.58,-219.517)">
        <path d="M751.915,820.154C751.915,820.154 693.006,746.798 677.229,636.435C677.229,636.435 618.481,684.979 633.283,673.227C648.135,661.435 588.413,707.363 588.413,707.363C692.839,746.399 751.915,820.154 751.915,820.154ZM497.028,310.462C497.028,310.462 454.8,356.304 408.912,392.412C363.956,427.786 309.555,460.303 309.555,460.303L478.181,661.204L495.845,656.004C464.945,663.515 389.059,777.414 429.065,781.664C503.081,789.537 766.433,580.443 785.489,498.68C794.622,459.502 661.717,507.38 647.328,535.738L656.395,519.716L497.028,310.462ZM480.009,178.617C373.589,220 254.021,310.883 185.959,412.077C173.909,429.993 211.395,481.269 239.268,478.075C316.959,469.178 504.1,319.946 529.856,245.819C539.01,219.474 500.044,170.825 480.009,178.617Z" style="fill-rule:nonzero;stroke:black;stroke-width:25px;stroke-linecap:round;"/>
    </g>
</svg>
